<svg width="24px" height="24px" viewBox="0 0 24 24" version="1.1" xmlns="http://www.w3.org/2000/svg" xmlns:xlink="http://www.w3.org/1999/xlink">
    <path d="M13.0710678,17.4852814 L13.0710678,13.0710678 L13.0710678,13.0710678 L17.4852814,13.0710678 C18.0375661,13.0710678 18.4852814,12.6233526 18.4852814,12.0710678 C18.4852814,11.5187831 18.0375661,11.0710678 17.4852814,11.0710678 L13.0710678,11.0710678 L13.0710678,11.0710678 L13.0710678,6.65685425 C13.0710678,6.1045695 12.6233526,5.65685425 12.0710678,5.65685425 C11.5187831,5.65685425 11.0710678,6.1045695 11.0710678,6.65685425 L11.0710678,11.0710678 L11.0710678,11.0710678 L6.65685425,11.0710678 C6.1045695,11.0710678 5.65685425,11.5187831 5.65685425,12.0710678 C5.65685425,12.6233526 6.1045695,13.0710678 6.65685425,13.0710678 L11.0710678,13.0710678 L11.0710678,13.0710678 L11.0710678,17.4852814 C11.0710678,18.0375661 11.5187831,18.4852814 12.0710678,18.4852814 C12.6233526,18.4852814 13.0710678,18.0375661 13.0710678,17.4852814 Z" id="+" fill="#505562" fill-rule="nonzero" transform="translate(12.071068, 12.071068) rotate(45.000000) translate(-12.071068, -12.071068) "></path>
</svg>