<svg xmlns="http://www.w3.org/2000/svg" xmlns:xlink="http://www.w3.org/1999/xlink" width="22" height="22" viewBox="0 0 32 32" style="padding: 5px;">
  <defs>
    <rect id="camunda-modeler_32x32-a" width="32" height="32" x="0" y="0" rx="3.889"/>
  </defs>
  <g fill="none" fill-rule="evenodd">
    <mask id="camunda-modeler_32x32-b" fill="#fff">
      <use xlink:href="#camunda-modeler_32x32-a"/>
    </mask>
    <use fill="#FF3A00" xlink:href="#camunda-modeler_32x32-a"/>
    <polygon fill="#FF5400" points="16 16 37.778 46.667 -3.556 43.556" mask="url(#camunda-modeler_32x32-b)"/>
    <polygon fill="#FF6F00" points="16 16 51.556 33.778 33.778 46.667" mask="url(#camunda-modeler_32x32-b)"/>
    <polygon fill="#FF8A01" points="16 16 22.667 -15.556 51.556 35.556" mask="url(#camunda-modeler_32x32-b)"/>
    <polygon fill="#FF6200" points="16 16 -11.111 -3.111 22.222 -9.333" mask="url(#camunda-modeler_32x32-b)"/>
    <g fill="#FFF" transform="translate(12.444 4.476)">
      <rect width="7.111" height="4.444" y="18.635"/>
      <path fill-rule="nonzero" d="M3.55555556,16.0131944 C5.88203018,16.0131944 7.11111111,14.5909722 7.11111111,12.1909722 L7.11111111,9.99097222 L4.82853224,9.99097222 L4.82853224,12.36875 C4.82853224,13.3909722 4.34567901,13.7909722 3.62139918,13.7909722 C2.89711934,13.7909722 2.41426612,13.3909722 2.41426612,12.36875 L2.41426612,3.67986111 C2.41426612,2.65763889 2.89711934,2.23541667 3.62139918,2.23541667 C4.34567901,2.23541667 4.82853224,2.65763889 4.82853224,3.67986111 L4.82853224,5.47986111 L7.11111111,5.47986111 L7.11111111,3.83541667 C7.11111111,1.43541667 5.88203018,0.0131944444 3.55555556,0.0131944444 C1.22908093,0.0131944444 0,1.43541667 0,3.83541667 L0,12.1909722 C0,14.5909722 1.22908093,16.0131944 3.55555556,16.0131944 Z"/>
    </g>
  </g>
</svg>
