<?xml version="1.0" encoding="UTF-8" standalone="no"?>
<svg
   xmlns:dc="http://purl.org/dc/elements/1.1/"
   xmlns:cc="http://creativecommons.org/ns#"
   xmlns:rdf="http://www.w3.org/1999/02/22-rdf-syntax-ns#"
   xmlns:svg="http://www.w3.org/2000/svg"
   xmlns="http://www.w3.org/2000/svg"
   xmlns:sodipodi="http://sodipodi.sourceforge.net/DTD/sodipodi-0.dtd"
   xmlns:inkscape="http://www.inkscape.org/namespaces/inkscape"
   viewBox="0 0 1024 1024"
   version="1.1"
   id="svg932"
   sodipodi:docname="icon.osx.svg"
   inkscape:version="0.92.2 2405546, 2018-03-11"
   width="1024"
   height="1024">
  <metadata
     id="metadata938">
    <rdf:RDF>
      <cc:Work
         rdf:about="">
        <dc:format>image/svg+xml</dc:format>
        <dc:type
           rdf:resource="http://purl.org/dc/dcmitype/StillImage" />
        <dc:title></dc:title>
      </cc:Work>
    </rdf:RDF>
  </metadata>
  <defs
     id="defs936" />
  <sodipodi:namedview
     pagecolor="#ffff9f"
     bordercolor="#666666"
     borderopacity="1"
     objecttolerance="10"
     gridtolerance="10"
     guidetolerance="10"
     inkscape:pageopacity="0"
     inkscape:pageshadow="2"
     inkscape:window-width="2552"
     inkscape:window-height="1379"
     id="namedview934"
     showgrid="false"
     inkscape:zoom="1.1333333"
     inkscape:cx="326.4137"
     inkscape:cy="705.75539"
     inkscape:window-x="0"
     inkscape:window-y="57"
     inkscape:window-maximized="0"
     inkscape:current-layer="svg932"
     inkscape:pagecheckerboard="true"
     fit-margin-top="0"
     fit-margin-left="0"
     fit-margin-right="0"
     fit-margin-bottom="0" />
  <path
     d="M 937,140.125 V 882.98958 C 937,912.20833 913.09375,937 883.875,937 H 140.125 C 110.90625,937 87,913.0937 87,883.875 V 140.56618 C 87,113.11213 114.21507,87 140.56618,87 h 742.4234 C 913.09375,87 937,110.90625 937,140.125 Z"
     id="path928"
     inkscape:connector-curvature="0"
     style="fill:#ffffff;stroke-width:0.88541669"
     sodipodi:nodetypes="sssssssss" />
  <path
     d="m 279.13542,572.20833 a 181.51042,181.51042 0 0 0 -127.5,51.35417 178.85417,178.85417 0 0 0 -3.54167,253.22917 178.85417,178.85417 0 0 0 252.34375,2.65625 177.08333,177.08333 0 0 0 42.5,-193.90625 A 179.73958,179.73958 0 0 0 279.13542,572.20833 Z M 752.83333,92.3125 a 182.39583,182.39583 0 0 0 -170,252.34375 A 182.39583,182.39583 0 0 0 821.01042,442.9375 183.28125,183.28125 0 0 0 919.29169,212.72917 180.625,180.625 0 0 0 752.83333,92.3125 Z M 141.89583,87 A 54.895833,54.895833 0 0 0 87,141.89583 v 352.39584 l 53.125,40.72916 a 229.32292,229.32292 0 0 1 78.80208,-31.875 c 4.42709,-24.79166 8.85417,-50.46875 12.39584,-75.26041 l 87.65625,1.77083 10.625,75.26042 a 217.8125,217.8125 0 0 1 77.91666,33.64583 L 469.5,492.52083 l 61.09375,62.86459 -46.04167,60.20833 c 15.05209,26.5625 25.67709,51.35417 30.98959,79.6875 l 76.14583,12.39583 -1.77083,88.54167 -76.14584,10.625 A 212.5,212.5 0 0 1 480.125,885.64583 L 518.19792,937 H 883.875 C 916.63542,937 937,913.0937 937,882.98958 v -435.625 a 194.79167,194.79167 0 0 1 -38.95833,35.41667 l 18.59375,75.26042 -82.34375,34.53125 -39.84375,-67.29167 a 228.4375,228.4375 0 0 1 -86.77084,0.88542 l -39.84375,67.29166 -83.22916,-34.53125 19.47916,-75.26041 a 263.85417,263.85417 0 0 1 -61.97916,-61.09375 l -76.14584,19.47916 -33.64583,-83.22916 67.29167,-39.84375 a 228.4375,228.4375 0 0 1 -0.88542,-86.77084 l -67.29167,-39.84375 35.41667,-83.22916 75.26042,19.47916 A 239.94792,239.94792 0 0 1 578.40625,87 Z"
     id="path930"
     inkscape:export-filename="/home/nikku/camunda/projects/bpmn-io/camunda-modeler/build/icon.png"
     inkscape:export-xdpi="102.4"
     inkscape:export-ydpi="102.4"
     inkscape:connector-curvature="0"
     style="fill:#52b415;stroke-width:0.88541669" />
</svg>
