<?xml version="1.0" encoding="UTF-8" standalone="no"?>
<svg
   xmlns:dc="http://purl.org/dc/elements/1.1/"
   xmlns:cc="http://creativecommons.org/ns#"
   xmlns:rdf="http://www.w3.org/1999/02/22-rdf-syntax-ns#"
   xmlns:svg="http://www.w3.org/2000/svg"
   xmlns="http://www.w3.org/2000/svg"
   height="1024"
   width="1024"
   id="svg932"
   version="1.1"
   viewBox="0 0 1024 1024">
  <metadata
     id="metadata938">
    <rdf:RDF>
      <cc:Work
         rdf:about="">
        <dc:format>image/svg+xml</dc:format>
        <dc:type
           rdf:resource="http://purl.org/dc/dcmitype/StillImage" />
        <dc:title></dc:title>
      </cc:Work>
    </rdf:RDF>
  </metadata>
  <defs
     id="defs936" />
  <path
     style="fill:#ffffff;stroke-width:1.06666672"
     id="path928"
     d="M 1024,64 V 958.93333 C 1024,994.13333 995.2,1024 960,1024 H 64 C 28.8,1024 0,995.2 0,960 V 64 C 0,28.8 28.8,0 64,0 H 958.93333 C 995.2,0 1024,28.8 1024,64 Z" />
  <path
     style="fill:#52b415;stroke-width:1.06666672"
     id="path930"
     d="M 231.46667,584.53333 A 218.66667,218.66667 0 0 0 77.866667,646.4 215.46667,215.46667 0 0 0 73.6,951.46667 a 215.46667,215.46667 0 0 0 304,3.2 213.33333,213.33333 0 0 0 51.2,-233.6 A 216.53333,216.53333 0 0 0 231.46667,584.53333 Z M 802.13333,6.4 a 219.73333,219.73333 0 0 0 -204.8,304 A 219.73333,219.73333 0 0 0 884.26667,428.8 220.8,220.8 0 0 0 1002.6667,151.46667 217.6,217.6 0 0 0 802.13333,6.4 Z M 66.133333,0 A 66.133333,66.133333 0 0 0 0,66.133333 V 490.66667 l 64,49.06666 a 276.26667,276.26667 0 0 1 94.93333,-38.4 c 5.33334,-29.86666 10.66667,-60.8 14.93334,-90.66666 l 105.6,2.13333 12.8,90.66667 A 262.4,262.4 0 0 1 386.13333,544 L 460.8,488.53333 534.4,564.26667 478.93333,636.8 c 18.13334,32 30.93334,61.86667 37.33334,96 L 608,747.73333 605.86667,854.4 514.13333,867.2 A 256,256 0 0 1 473.6,962.13333 L 519.46667,1024 H 960 c 39.46667,0 64,-28.8 64,-65.06667 v -524.8 A 234.66667,234.66667 0 0 1 977.06667,476.8 l 22.4,90.66667 -99.2,41.6 -48,-81.06667 a 275.2,275.2 0 0 1 -104.53334,1.06667 l -48,81.06666 -100.26666,-41.6 23.46666,-90.66666 a 317.86667,317.86667 0 0 1 -74.66666,-73.6 L 456.53333,427.73333 416,327.46667 l 81.06667,-48 A 275.2,275.2 0 0 1 496,174.93333 l -81.06667,-48 L 457.6,26.666667 548.26667,50.133333 A 289.06667,289.06667 0 0 1 592,0 Z" />
</svg>
