<svg width="24" height="24" viewBox="0 0 32 32" fill="none" xmlns="http://www.w3.org/2000/svg">
<g clip-path="url(#clip0_697_5811)">
<path d="M16 32C24.8366 32 32 24.8366 32 16C32 7.16344 24.8366 0 16 0C7.16344 0 0 7.16344 0 16C0 24.8366 7.16344 32 16 32Z" fill="#A56EFF"/>
<path fill-rule="evenodd" clip-rule="evenodd" d="M20.0105 12.0987C18.49 10.5894 17.1594 8.10814 16.1799 6.01103C16.152 6.00451 16.1176 6 16.0794 6C16.0411 6 16.0066 6.00451 15.9788 6.01104C14.9994 8.10814 13.6697 10.5889 12.1481 12.0981C10.6269 13.6071 8.12568 14.9264 6.01157 15.8981C6.00474 15.9261 6 15.9611 6 16C6 16.0387 6.00468 16.0736 6.01144 16.1014C8.12519 17.0729 10.6262 18.3919 12.1477 19.9016C13.6697 21.4107 14.9996 23.892 15.9791 25.989C16.0068 25.9956 16.0411 26 16.0793 26C16.1175 26 16.1519 25.9954 16.1796 25.989C17.1591 23.892 18.4888 21.411 20.0099 19.9021M20.0099 19.9021C21.5253 18.3987 23.9465 17.0669 25.9915 16.0824C25.9965 16.0593 26 16.031 26 15.9997C26 15.9684 25.9965 15.9403 25.9915 15.9171C23.9474 14.9327 21.5259 13.601 20.0105 12.0987" fill="white"/>
<mask id="mask0_697_5811" style="mask-type:luminance" maskUnits="userSpaceOnUse" x="4" y="4" width="24" height="24">
<path d="M28 4H4V28H28V4Z" fill="white"/>
<path fill-rule="evenodd" clip-rule="evenodd" d="M20.0105 12.0987C18.49 10.5894 17.1594 8.10814 16.1799 6.01103C16.152 6.00451 16.1176 6 16.0794 6C16.0411 6 16.0066 6.00451 15.9788 6.01104C14.9994 8.10814 13.6697 10.5889 12.1481 12.0981C10.6269 13.6071 8.12568 14.9264 6.01157 15.8981C6.00474 15.9261 6 15.9611 6 16C6 16.0387 6.00468 16.0736 6.01144 16.1014C8.12519 17.0729 10.6262 18.3919 12.1477 19.9016C13.6697 21.4107 14.9996 23.892 15.9791 25.989C16.0068 25.9956 16.0411 26 16.0793 26C16.1175 26 16.1519 25.9954 16.1796 25.989C17.1591 23.892 18.4888 21.411 20.0099 19.9021M20.0099 19.9021C21.5253 18.3987 23.9465 17.0669 25.9915 16.0824C25.9965 16.0593 26 16.031 26 15.9997C26 15.9684 25.9965 15.9403 25.9915 15.9171C23.9474 14.9327 21.5259 13.601 20.0105 12.0987" fill="black"/>
</mask>
<g mask="url(#mask0_697_5811)">
<path fill-rule="evenodd" clip-rule="evenodd" d="M20.0105 12.0987C18.49 10.5894 17.1594 8.10814 16.1799 6.01103C16.152 6.00451 16.1176 6 16.0794 6C16.0411 6 16.0066 6.00451 15.9788 6.01104C14.9994 8.10814 13.6697 10.5889 12.1481 12.0981C10.6269 13.6071 8.12568 14.9264 6.01157 15.8981C6.00474 15.9261 6 15.9611 6 16C6 16.0387 6.00468 16.0736 6.01144 16.1014C8.12519 17.0729 10.6262 18.3919 12.1477 19.9016C13.6697 21.4107 14.9996 23.892 15.9791 25.989C16.0068 25.9956 16.0411 26 16.0793 26C16.1175 26 16.1519 25.9954 16.1796 25.989C17.1591 23.892 18.4888 21.411 20.0099 19.9021M20.0099 19.9021C21.5253 18.3987 23.9465 17.0669 25.9915 16.0824C25.9965 16.0593 26 16.031 26 15.9997C26 15.9684 25.9965 15.9403 25.9915 15.9171C23.9474 14.9327 21.5259 13.601 20.0105 12.0987" stroke="#491D8B" stroke-width="4" stroke-linejoin="round"/>
</g>
</g>
<defs>
<clipPath id="clip0_697_5811">
<rect width="32" height="32" fill="white"/>
</clipPath>
</defs>
</svg>
