<svg width="16" height="16" viewBox="0 0 16 16" xmlns="http://www.w3.org/2000/svg">
  <path d="M8.00356 14.544C7.1289 14.544 6.30756 14.3787 5.53956 14.048C4.77156 13.728 4.09423 13.28 3.50756 12.704C2.93156 12.1173 2.47823 11.44 2.14756 10.672C1.82756 9.904 1.66756 9.08267 1.66756 8.208C1.66756 7.32267 1.82756 6.50133 2.14756 5.744C2.47823 4.976 2.93156 4.304 3.50756 3.728C4.09423 3.14133 4.77156 2.688 5.53956 2.368C6.30756 2.03733 7.1289 1.872 8.00356 1.872C8.8889 1.872 9.71023 2.03733 10.4676 2.368C11.2356 2.688 11.9076 3.14133 12.4836 3.728C13.0702 4.304 13.5236 4.976 13.8436 5.744C14.1742 6.50133 14.3396 7.32267 14.3396 8.208C14.3396 9.08267 14.1742 9.904 13.8436 10.672C13.5236 11.44 13.0702 12.1173 12.4836 12.704C11.9076 13.28 11.2356 13.728 10.4676 14.048C9.71023 14.3787 8.8889 14.544 8.00356 14.544ZM8.00356 13.872C8.7929 13.872 9.5289 13.728 10.2116 13.44C10.8942 13.1413 11.4916 12.736 12.0036 12.224C12.5262 11.7013 12.9316 11.0987 13.2196 10.416C13.5182 9.73333 13.6676 8.99733 13.6676 8.208C13.6676 7.41867 13.5182 6.68267 13.2196 6C12.9316 5.31733 12.5262 4.72 12.0036 4.208C11.4916 3.68533 10.8942 3.28 10.2116 2.992C9.5289 2.69333 8.7929 2.544 8.00356 2.544C7.21423 2.544 6.47823 2.69333 5.79556 2.992C5.1129 3.28 4.51023 3.68533 3.98756 4.208C3.47556 4.72 3.07023 5.31733 2.77156 6C2.48356 6.68267 2.33956 7.41867 2.33956 8.208C2.33956 8.99733 2.48356 9.73333 2.77156 10.416C3.07023 11.0987 3.47556 11.7013 3.98756 12.224C4.51023 12.736 5.1129 13.1413 5.79556 13.44C6.47823 13.728 7.21423 13.872 8.00356 13.872Z" />
  <path d="M5.53956 14.048L5.73731 13.5887L5.73187 13.5865L5.53956 14.048ZM3.50756 12.704L3.15072 13.0544L3.15727 13.0608L3.50756 12.704ZM2.14756 10.672L1.68599 10.8643L1.68832 10.8697L2.14756 10.672ZM2.14756 5.744L1.68831 5.54627L1.68699 5.54939L2.14756 5.744ZM3.50756 3.728L3.15401 3.37445L3.15401 3.37445L3.50756 3.728ZM5.53956 2.368L5.73188 2.82957L5.73729 2.82724L5.53956 2.368ZM10.4676 2.368L10.2675 2.82629L10.2753 2.82954L10.4676 2.368ZM12.4836 3.728L12.1267 4.07835L12.1333 4.08478L12.4836 3.728ZM13.8436 5.744L13.382 5.93633L13.3853 5.94407L13.8436 5.744ZM13.8436 10.672L13.3843 10.4743L13.382 10.4797L13.8436 10.672ZM12.4836 12.704L12.8371 13.0576L12.8371 13.0576L12.4836 12.704ZM10.4676 14.048L10.2752 13.5864L10.2675 13.5898L10.4676 14.048ZM10.2116 13.44L10.4059 13.9007L10.412 13.8981L10.2116 13.44ZM12.0036 12.224L11.65 11.8704L11.65 11.8704L12.0036 12.224ZM13.2196 10.416L12.7614 10.2156L12.7589 10.2216L13.2196 10.416ZM13.2196 6L12.7588 6.19437L12.7615 6.20041L13.2196 6ZM12.0036 4.208L11.6463 4.55796L11.6537 4.56518L12.0036 4.208ZM10.2116 2.992L10.0111 3.45012L10.0172 3.45268L10.2116 2.992ZM5.79556 2.992L5.98993 3.45272L5.99597 3.45008L5.79556 2.992ZM3.98756 4.208L3.63401 3.85445L3.63401 3.85445L3.98756 4.208ZM2.77156 6L2.31344 5.79957L2.31088 5.80565L2.77156 6ZM2.77156 10.416L2.31084 10.6104L2.31348 10.6164L2.77156 10.416ZM3.98756 12.224L3.63031 12.574L3.63767 12.5812L3.98756 12.224ZM5.79556 13.44L5.59514 13.8981L5.60121 13.9007L5.79556 13.44ZM8.00356 14.044C7.1937 14.044 6.43997 13.8913 5.73729 13.5888L5.34183 14.5072C6.17515 14.866 7.06409 15.044 8.00356 15.044V14.044ZM5.73187 13.5865C5.02201 13.2907 4.39847 12.878 3.85786 12.3472L3.15727 13.0608C3.78999 13.682 4.52112 14.1653 5.34725 14.5095L5.73187 13.5865ZM3.86434 12.3537C3.33238 11.8119 2.91346 11.1865 2.6068 10.4743L1.68832 10.8697C2.043 11.6935 2.53075 12.4228 3.15078 13.0543L3.86434 12.3537ZM2.6091 10.4797C2.31578 9.77573 2.16756 9.0201 2.16756 8.208H1.16756C1.16756 9.14524 1.33934 10.0323 1.68602 10.8643L2.6091 10.4797ZM2.16756 8.208C2.16756 7.38433 2.3161 6.62975 2.60814 5.93861L1.68699 5.54939C1.33902 6.37292 1.16756 7.26101 1.16756 8.208H2.16756ZM2.6068 5.94173C2.9131 5.23032 3.33109 4.61158 3.86112 4.08155L3.15401 3.37445C2.53203 3.99642 2.04335 4.72168 1.68832 5.54627L2.6068 5.94173ZM3.86112 4.08155C4.40147 3.5412 5.02398 3.12449 5.73187 2.82954L5.34725 1.90646C4.51914 2.25151 3.78699 2.74147 3.15401 3.37445L3.86112 4.08155ZM5.73729 2.82724C6.43997 2.5247 7.1937 2.372 8.00356 2.372V1.372C7.06409 1.372 6.17515 1.54997 5.34183 1.90876L5.73729 2.82724ZM8.00356 2.372C8.82502 2.372 9.57767 2.52504 10.2675 2.82623L10.6676 1.90977C9.84279 1.54963 8.95277 1.372 8.00356 1.372V2.372ZM10.2753 2.82954C10.9823 3.12414 11.5982 3.53991 12.1268 4.07829L12.8403 3.3777C12.2169 2.74275 11.4888 2.25186 10.6599 1.90646L10.2753 2.82954ZM12.1333 4.08478C12.6716 4.61337 13.0874 5.22926 13.382 5.93631L14.3051 5.55169C13.9597 4.72274 13.4688 3.99463 12.8339 3.37122L12.1333 4.08478ZM13.3853 5.94407C13.6865 6.63389 13.8396 7.38654 13.8396 8.208H14.8396C14.8396 7.25879 14.6619 6.36878 14.3018 5.54393L13.3853 5.94407ZM13.8396 8.208C13.8396 9.01786 13.6869 9.77159 13.3843 10.4743L14.3028 10.8697C14.6616 10.0364 14.8396 9.14747 14.8396 8.208H13.8396ZM13.382 10.4797C13.0871 11.1876 12.6704 11.8101 12.13 12.3504L12.8371 13.0576C13.4701 12.4246 13.9601 11.6924 14.3051 10.8643L13.382 10.4797ZM12.13 12.3504C11.6012 12.8793 10.9843 13.291 10.2753 13.5865L10.6599 14.5095C11.4868 14.165 12.2139 13.6807 12.8371 13.0576L12.13 12.3504ZM10.2675 13.5898C9.57767 13.891 8.82502 14.044 8.00356 14.044V15.044C8.95277 15.044 9.84279 14.8664 10.6676 14.5062L10.2675 13.5898ZM8.00356 14.372C8.85523 14.372 9.65779 14.2163 10.4059 13.9007L10.0172 12.9793C9.4 13.2397 8.73056 13.372 8.00356 13.372V14.372ZM10.412 13.8981C11.1501 13.5752 11.7997 13.1349 12.3571 12.5776L11.65 11.8704C11.1834 12.3371 10.6384 12.7075 10.0112 12.9819L10.412 13.8981ZM12.3571 12.5776C12.9255 12.0091 13.3672 11.3524 13.6802 10.6104L12.7589 10.2216C12.4959 10.845 12.1269 11.3935 11.65 11.8704L12.3571 12.5776ZM13.6776 10.6164C14.0056 9.86684 14.1676 9.06215 14.1676 8.208H13.1676C13.1676 8.93252 13.0309 9.59982 12.7615 10.2156L13.6776 10.6164ZM14.1676 8.208C14.1676 7.35385 14.0056 6.54916 13.6776 5.79959L12.7615 6.20041C13.0309 6.81617 13.1676 7.48348 13.1676 8.208H14.1676ZM13.6802 5.80565C13.3668 5.06269 12.9241 4.40981 12.3535 3.85082L11.6537 4.56518C12.1284 5.03018 12.4963 5.57197 12.7589 6.19435L13.6802 5.80565ZM12.3607 3.85811C11.8017 3.28747 11.1489 2.84475 10.4059 2.53132L10.0172 3.45268C10.6396 3.71525 11.1814 4.0832 11.6464 4.55789L12.3607 3.85811ZM10.412 2.53392C9.6624 2.20599 8.85771 2.044 8.00356 2.044V3.044C8.72808 3.044 9.39539 3.18068 10.0112 3.45008L10.412 2.53392ZM8.00356 2.044C7.14941 2.044 6.34472 2.20599 5.59515 2.53392L5.99597 3.45008C6.61174 3.18068 7.27905 3.044 8.00356 3.044V2.044ZM5.60121 2.53132C4.85921 2.84435 4.20244 3.28601 3.63401 3.85445L4.34112 4.56155C4.81802 4.08465 5.36659 3.71565 5.98991 3.45268L5.60121 2.53132ZM3.63401 3.85445C3.07664 4.41182 2.6364 5.0615 2.31348 5.79959L3.22964 6.20041C3.50406 5.57317 3.87449 5.02818 4.34112 4.56155L3.63401 3.85445ZM2.31088 5.80565C1.99527 6.55377 1.83956 7.35633 1.83956 8.208H2.83956C2.83956 7.481 2.97186 6.81156 3.23224 6.19435L2.31088 5.80565ZM1.83956 8.208C1.83956 9.05967 1.99527 9.86223 2.31088 10.6104L3.23224 10.2216C2.97186 9.60444 2.83956 8.935 2.83956 8.208H1.83956ZM2.31348 10.6164C2.63599 11.3536 3.07518 12.0071 3.63038 12.5739L4.34474 11.8741C3.87595 11.3955 3.50447 10.8438 3.22964 10.2156L2.31348 10.6164ZM3.63767 12.5812C4.20445 13.1364 4.858 13.5756 5.59515 13.8981L5.99597 12.9819C5.36779 12.7071 4.81601 12.3356 4.33745 11.8668L3.63767 12.5812ZM5.60121 13.9007C6.34933 14.2163 7.15189 14.372 8.00356 14.372V13.372C7.27657 13.372 6.60712 13.2397 5.98991 12.9793L5.60121 13.9007Z" />
</svg>