<svg width="80px" height="64px" viewBox="0 0 80 64" >
    <g id="cloud" transform="translate(4.000000, 8.000000)" fill="currentColor">
        <path d="M61.95625,25.344441 C60.34125,17.150691 53.145,10.999441 44.5,10.999441 C37.63625,10.999441 31.675,14.894441 28.70625,20.594441 C21.5575,21.354441 16,27.410691 16,34.749441 C16,42.610691 22.38875,48.999441 30.25,48.999441 L61.125,48.999441 C67.68,48.999441 73,43.679441 73,37.124441 C73,30.854441 68.13125,25.771941 61.95625,25.344441 Z"></path>            
        <path d="M19.7160113,0 L19.88259,0.00284692883 C20.433855,0.0134546636 20.979465,0.0469353266 21.51864,0.102372441 C21.89356,0.140938143 22.1988385,0.402674563 22.3127228,0.753821356 L22.34622,0.889431264 L22.879155,3.98043549 C22.94604,4.36865128 23.24088,4.67561261 23.620935,4.77909652 C24.821745,5.10598635 25.96386,5.57508612 27.02817,6.16716932 C27.3198343,6.32944426 27.6699508,6.3444175 27.9644395,6.20395995 L28.10652,6.12074098 L30.646005,4.3281898 C30.99213,4.08378291 31.458375,4.08916477 31.78734,4.35640559 C32.834685,5.20726682 33.79194,6.16459539 34.642725,7.2119142 C34.8766519,7.49973432 34.9099237,7.89253737 34.7509013,8.2182033 L34.671,8.35316217 L32.91756,10.8371661 C32.689605,11.159961 32.681805,11.5869418 32.879145,11.9292363 C32.994476,12.1292512 33.1054255,12.3321131 33.2118621,12.5376906 C32.1631184,13.2660555 31.1904129,14.0927981 30.3046344,15.0045232 C28.5443797,10.7738313 24.3695977,7.79896653 19.5,7.79896653 C13.0382655,7.79896653 7.8,13.0371011 7.8,19.498674 C7.8,24.2342765 10.6136113,28.3127587 14.6603924,30.1536956 C14.3089348,31.3445203 14.0908598,32.5926596 14.022889,33.8801989 C13.8882782,33.8281792 13.7541313,33.7737696 13.620945,33.7175236 C13.0323375,33.4792395 12.4555275,33.2029314 11.894298,32.8885993 C11.6053414,32.726809 11.258477,32.7097131 10.9651202,32.8456617 L10.8234165,32.9264283 L8.354268,34.6692948 C8.0080065,34.9136237 7.541937,34.9081638 7.2129915,34.6410205 C6.8013465,34.3066038 6.403605,33.9558076 6.0207615,33.5894118 L5.7114135,33.2869743 L5.3873625,32.9550926 C5.0289525,32.579337 4.685421,32.1891518 4.357665,31.7859019 C4.12353338,31.4980647 4.08960886,31.1057223 4.24860203,30.780002 L4.328532,30.6449854 L6.0372,28.2245109 C6.2647845,27.901989 6.272994,27.4757296 6.076395,27.1335132 C5.428098,26.0050764 4.935021,24.8119012 4.5971835,23.5847969 C4.50595031,23.2534514 4.25992613,22.9874963 3.94053559,22.8815089 L3.7993995,22.8461553 L0.8912475,22.3448229 C0.4735965,22.2728697 0.1478295,21.939428 0.1041885,21.5178486 C-0.0347295,20.1756971 -0.0347295,18.821846 0.1041885,17.4794995 C0.142963167,17.1049355 0.404667611,16.7998572 0.755688796,16.6861513 L0.8912475,16.6527202 L3.7993995,16.1511927 C4.1864745,16.0845044 4.492917,15.7912317 4.5971835,15.4125902 C4.935021,14.1855639 5.428098,12.9923497 6.076395,11.8639714 C6.24490843,11.5706597 6.26295031,11.215502 6.12134756,10.9169715 L6.0372,10.7729737 L4.3284735,8.35236269 C4.083963,8.00597335 4.0900275,7.54050049 4.3576065,7.21158271 C4.685382,6.8081573 5.0289525,6.41806955 5.387382,6.04229444 L5.7114135,5.71043224 L6.0207225,5.4079558 C6.4035855,5.04163796 6.801327,4.69074423 7.2129915,4.35632759 C7.50081881,4.12249188 7.89363169,4.08915685 8.21930576,4.2482103 L8.354268,4.3281313 L10.828584,6.07466363 C11.145732,6.28945076 11.5589955,6.29660708 11.894298,6.10882678 C13.0087035,5.48468638 14.1844755,5.01049724 15.3921105,4.68622034 C15.7260407,4.59655915 15.9945639,4.34988635 16.1015461,4.02876107 L16.137225,3.88681833 L16.65417,0.889411765 C16.72632,0.471576211 17.05977,0.145739357 17.481555,0.102352941 C17.888715,0.0602079948 18.296655,0.0312360524 18.7050861,0.0149575705 L19.318065,0 L19.7160113,0 Z" ></path>
    </g>
</svg>