<svg width="80" height="64" viewBox="0 0 80 64" fill="none" xmlns="http://www.w3.org/2000/svg">
    <path id="Vector" d="M21.2134 42.646C21.2178 43.2011 21.261 43.7552 21.3428 44.3043C21.2742 44.266 21.2046 44.2331 21.1362 44.1936L17.7779 47.5017L11.7641 41.4654L15.125 38.1572C14.4441 36.96 13.9197 35.6804 13.5647 34.3498L9 34.322V25.8272L13.6152 25.8524C13.7976 25.1912 14.0231 24.5426 14.2904 23.9109C14.5589 23.2793 14.8673 22.6653 15.2136 22.0728L12.0271 18.8755L18.1015 12.8997L21.2855 16.0944C22.4876 15.4181 23.7708 14.8971 25.1041 14.5437L25.0788 10H33.6695L33.6544 14.5865C34.9907 14.9482 36.2738 15.484 37.4705 16.1801L40.7631 12.93L46.7717 18.9689L43.7725 21.9341C41.6925 21.5296 39.538 21.7896 37.6141 22.6773C36.582 21.5549 35.3324 20.6543 33.9413 20.0301C32.5501 19.406 31.0465 19.0715 29.522 19.0469C27.9974 19.0224 26.4838 19.3083 25.0733 19.8873C23.6628 20.4663 22.3848 21.3262 21.3171 22.4148C20.2495 23.5033 19.4145 24.7978 18.8631 26.2193C18.3116 27.6408 18.0551 29.1597 18.1093 30.6834C18.1634 32.2072 18.5271 33.704 19.1781 35.0828C19.8291 36.4616 20.7539 37.6935 21.8961 38.7035C21.446 39.9693 21.2152 41.3026 21.2134 42.646V42.646Z" fill="currentColor"/>
    <path id="Vector_2" d="M62.955 33.8824C62.2697 31.2575 60.5937 29.0003 58.2793 27.585C55.9648 26.1697 53.1919 25.7064 50.543 26.2925C49.3399 24.5457 47.6352 23.205 45.6541 22.4475C43.673 21.69 41.5087 21.5513 39.4471 22.0498C37.3855 22.5483 35.5236 23.6604 34.1074 25.2394C32.6912 26.8183 31.7874 28.7897 31.5152 30.8932C28.5344 31.2904 25.8159 32.8056 23.9102 35.1319C22.0045 37.4582 21.0541 40.4217 21.2514 43.4225C21.4487 46.4232 22.7789 49.2368 24.9728 51.2935C27.1667 53.3503 30.0601 54.4965 33.0673 54.5H60.3161C62.8643 54.4997 65.3251 53.5707 67.2379 51.8869C69.1507 50.2032 70.3843 47.8801 70.7078 45.3524C71.0313 42.8248 70.4226 40.2658 68.9956 38.1546C67.5686 36.0434 65.4211 34.5246 62.955 33.8824V33.8824Z" fill="currentColor"/>
</svg>