<svg width="100%" height="100%" fill="currentcolor" viewBox="0 0 32 32" version="1.1" xmlns="http://www.w3.org/2000/svg" xmlns:xlink="http://www.w3.org/1999/xlink" xml:space="preserve" xmlns:serif="http://www.serif.com/" style="fill-rule:evenodd;clip-rule:evenodd;stroke-linejoin:round;stroke-miterlimit:2;">
    <path d="M24.515,16.314L30,21.799L21.799,30L16.314,24.515L18.435,22.393L21.799,25.757L25.757,21.799L22.393,18.435L24.515,16.314ZM17.021,20.979L14.899,23.101L8.899,17.101L11.021,14.979L17.021,20.979ZM23.101,14.899L20.979,17.021L14.979,11.021L17.101,8.899L23.101,14.899ZM15.686,7.485L13.565,9.607L10.201,6.243C10.201,6.243 6.243,10.201 6.243,10.201L9.607,13.565L7.485,15.686L2,10.201L10.201,2L15.686,7.485Z"/>
    <path d="M3,23L19,7L25,13L9,29L3,29L3,23Z"/>
    <path d="M21,5L27,11C27,11 27.841,10.159 28.751,9.249C29.348,8.652 29.683,7.843 29.683,7C29.683,6.157 29.348,5.348 28.751,4.751C28.26,4.26 27.74,3.74 27.249,3.249C26.652,2.652 25.843,2.317 25,2.317C24.157,2.317 23.348,2.652 22.751,3.249C21.841,4.159 21,5 21,5Z"/>
</svg>
