<svg width="80px" height="64px" viewBox="0 0 80 64">
    <g id="platform" transform="translate(14.000000, 5.000000)" fill="currentColor">
        <path d="M33.318065,15 L33.7160112,15 L33.88259,15.0028469 C34.433855,15.0134547 34.979465,15.0469353 35.51864,15.1023724 C35.89356,15.1409381 36.1988385,15.4026746 36.3127228,15.7538214 L36.34622,15.8894313 L36.879155,18.9804355 C36.94604,19.3686513 37.24088,19.6756126 37.620935,19.7790965 C38.821745,20.1059864 39.96386,20.5750861 41.02817,21.1671693 C41.3198343,21.3294443 41.6699508,21.3444175 41.9644395,21.20396 L42.10652,21.120741 L44.646005,19.3281898 C44.99213,19.0837829 45.458375,19.0891648 45.78734,19.3564056 C46.834685,20.2072668 47.79194,21.1645954 48.642725,22.2119142 C48.8766519,22.4997343 48.9099238,22.8925374 48.7509013,23.2182033 L48.671,23.3531622 L46.91756,25.8371661 C46.689605,26.159961 46.681805,26.5869418 46.879145,26.9292363 C47.50373,28.0124342 47.99981,29.179129 48.34652,30.4084563 C48.43934,30.7374131 48.6847414,31.0009794 49.0023838,31.1061458 L49.142705,31.141248 L52.109825,31.6527202 C52.52771,31.7248684 52.853555,32.05831 52.896845,32.4800845 C52.94501,32.9455379 52.976015,33.4119662 52.990445,33.8789795 C52.99688,34.0846994 53,34.2913942 53,34.498674 L52.98986,35.1351381 C52.97504,35.6002015 52.94384,36.060975 52.896845,36.5172636 C52.858365,36.8921742 52.5966317,37.197291 52.2454498,37.3111382 L52.109825,37.3446279 L49.189895,37.8479103 C48.79775,37.9183035 48.49316,38.2127462 48.390785,38.5916217 C48.05129,39.8479753 47.556185,41.0403705 46.927505,42.1469678 C46.7611979,42.4396277 46.7441732,42.7930304 46.8853952,43.0900291 L46.969235,43.2332857 L48.671,45.6442054 C48.915335,45.9905167 48.91007,46.4565551 48.642725,46.7855119 C47.79194,47.8328307 46.83449,48.7900617 45.78734,49.6410205 C45.4994956,49.8747709 45.1065463,49.9081699 44.7809298,49.7490554 L44.646005,49.6690998 L42.219815,47.9568476 C41.900795,47.740598 41.484665,47.7345531 41.14868,47.9256484 C40.042055,48.5543126 38.84963,49.0494053 37.593245,49.3888918 C37.2600144,49.4789795 36.9918772,49.7255265 36.8851113,50.0462348 L36.849515,50.1879818 L36.34622,53.1078388 C36.27407,53.5257134 35.940425,53.8515502 35.51864,53.8950341 C34.176455,54.0338707 32.823935,54.0338707 31.481555,53.8950341 C31.106635,53.8563818 30.8015106,53.5946357 30.6876605,53.2435974 L30.65417,53.1080338 L30.138785,50.1199285 C30.06566,49.7449529 29.77901,49.4487553 29.409836,49.3446279 C28.7971265,49.1718622 28.1999585,48.9620474 27.620945,48.7175236 C27.0323375,48.4792395 26.4555275,48.2029314 25.894298,47.8885993 C25.6053414,47.726809 25.258477,47.7097131 24.9651202,47.8456617 L24.8234165,47.9264283 L22.354268,49.6692948 C22.0080065,49.9136237 21.541937,49.9081638 21.2129915,49.6410205 C20.8013465,49.3066038 20.403605,48.9558076 20.0207615,48.5894118 L19.7114135,48.2869743 L19.7114135,48.2869743 L19.3873625,47.9550926 L19.3873625,47.9550926 C19.0289525,47.579337 18.685421,47.1891518 18.357665,46.7859019 C18.1235334,46.4980647 18.0896089,46.1057223 18.248602,45.780002 L18.328532,45.6449854 L20.0372,43.2245109 C20.2647845,42.901989 20.272994,42.4757296 20.076395,42.1335132 C19.428098,41.0050764 18.935021,39.8119012 18.5971835,38.5847969 C18.5059503,38.2534514 18.2599261,37.9874963 17.9405356,37.8815089 L17.7993995,37.8461553 L14.8912475,37.3448229 C14.4735965,37.2728697 14.1478295,36.939428 14.1041885,36.5178486 C13.9652705,35.1756971 13.9652705,33.821846 14.1041885,32.4794995 C14.1429632,32.1049355 14.4046676,31.7998572 14.7556888,31.6861513 L14.8912475,31.6527202 L17.7993995,31.1511927 C18.1864745,31.0845044 18.492917,30.7912317 18.5971835,30.4125902 C18.935021,29.1855639 19.428098,27.9923497 20.076395,26.8639714 C20.2449084,26.5706597 20.2629503,26.215502 20.1213476,25.9169715 L20.0372,25.7729737 L18.3284735,23.3523627 C18.083963,23.0059734 18.0900275,22.5405005 18.3576065,22.2115827 C18.685382,21.8081573 19.0289525,21.4180695 19.387382,21.0422944 L19.7114135,20.7104322 L19.7114135,20.7104322 L20.0207225,20.4079558 L20.0207225,20.4079558 C20.4035855,20.041638 20.801327,19.6907442 21.2129915,19.3563276 C21.5008188,19.1224919 21.8936317,19.0891568 22.2193058,19.2482103 L22.354268,19.3281313 L24.828584,21.0746636 C25.145732,21.2894508 25.5589955,21.2966071 25.894298,21.1088268 C27.0087035,20.4846864 28.1844755,20.0104972 29.3921105,19.6862203 C29.7260407,19.5965591 29.9945639,19.3498864 30.1015461,19.0287611 L30.137225,18.8868183 L30.65417,15.8894118 C30.72632,15.4715762 31.05977,15.1457394 31.481555,15.1023529 C31.888715,15.060208 32.296655,15.0312361 32.7050861,15.0149576 L33.318065,15 Z M33.5,22.7989665 C27.0382655,22.7989665 21.8,28.0371011 21.8,34.498674 C21.8,40.9602275 27.0382655,46.1983815 33.5,46.1983815 C39.961715,46.1983815 45.2,40.9602275 45.2,34.498674 C45.2,28.0371011 39.961715,22.7989665 33.5,22.7989665 Z" ></path>
        <path d="M19.7160113,0 L19.88259,0.00284692883 C20.433855,0.0134546636 20.979465,0.0469353266 21.51864,0.102372441 C21.89356,0.140938143 22.1988385,0.402674563 22.3127228,0.753821356 L22.34622,0.889431264 L22.879155,3.98043549 C22.94604,4.36865128 23.24088,4.67561261 23.620935,4.77909652 C24.821745,5.10598635 25.96386,5.57508612 27.02817,6.16716932 C27.3198343,6.32944426 27.6699508,6.3444175 27.9644395,6.20395995 L28.10652,6.12074098 L30.646005,4.3281898 C30.99213,4.08378291 31.458375,4.08916477 31.78734,4.35640559 C32.834685,5.20726682 33.79194,6.16459539 34.642725,7.2119142 C34.8766519,7.49973432 34.9099237,7.89253737 34.7509013,8.2182033 L34.671,8.35316217 L32.91756,10.8371661 C32.689605,11.159961 32.681805,11.5869418 32.879145,11.9292363 C33.0880136,12.2914704 33.2825113,12.6630421 33.4618578,13.0431711 C32.0984882,13.1443602 30.8004066,13.3070235 29.5663761,13.5310325 C27.5269207,10.0993182 23.7820979,7.79896653 19.5,7.79896653 C13.0382655,7.79896653 7.8,13.0371011 7.8,19.498674 C7.8,23.3968133 9.70646271,26.8496972 12.6378832,28.9758301 C12.3522484,30.2289957 12.1456984,31.555724 12.0185139,32.9552829 C11.9764479,32.9343597 11.9353313,32.9115811 11.894298,32.8885993 C11.6053414,32.726809 11.258477,32.7097131 10.9651202,32.8456617 L10.8234165,32.9264283 L8.354268,34.6692948 C8.0080065,34.9136237 7.541937,34.9081638 7.2129915,34.6410205 C6.8013465,34.3066038 6.403605,33.9558076 6.0207615,33.5894118 L5.7114135,33.2869743 L5.3873625,32.9550926 C5.0289525,32.579337 4.685421,32.1891518 4.357665,31.7859019 C4.12353338,31.4980647 4.08960886,31.1057223 4.24860203,30.780002 L4.328532,30.6449854 L6.0372,28.2245109 C6.2647845,27.901989 6.272994,27.4757296 6.076395,27.1335132 C5.428098,26.0050764 4.935021,24.8119012 4.5971835,23.5847969 C4.50595031,23.2534514 4.25992613,22.9874963 3.94053559,22.8815089 L3.7993995,22.8461553 L0.8912475,22.3448229 C0.4735965,22.2728697 0.1478295,21.939428 0.1041885,21.5178486 C-0.0347295,20.1756971 -0.0347295,18.821846 0.1041885,17.4794995 C0.142963167,17.1049355 0.404667611,16.7998572 0.755688796,16.6861513 L0.8912475,16.6527202 L3.7993995,16.1511927 C4.1864745,16.0845044 4.492917,15.7912317 4.5971835,15.4125902 C4.935021,14.1855639 5.428098,12.9923497 6.076395,11.8639714 C6.24490843,11.5706597 6.26295031,11.215502 6.12134756,10.9169715 L6.0372,10.7729737 L4.3284735,8.35236269 C4.083963,8.00597335 4.0900275,7.54050049 4.3576065,7.21158271 C4.685382,6.8081573 5.0289525,6.41806955 5.387382,6.04229444 L5.7114135,5.71043224 L6.0207225,5.4079558 C6.4035855,5.04163796 6.801327,4.69074423 7.2129915,4.35632759 C7.50081881,4.12249188 7.89363169,4.08915685 8.21930576,4.2482103 L8.354268,4.3281313 L10.828584,6.07466363 C11.145732,6.28945076 11.5589955,6.29660708 11.894298,6.10882678 C13.0087035,5.48468638 14.1844755,5.01049724 15.3921105,4.68622034 C15.7260407,4.59655915 15.9945639,4.34988635 16.1015461,4.02876107 L16.137225,3.88681833 L16.65417,0.889411765 C16.72632,0.471576211 17.05977,0.145739357 17.481555,0.102352941 C17.888715,0.0602079948 18.296655,0.0312360524 18.7050861,0.0149575705 L19.318065,0 L19.7160113,0 Z" id="Combined-Shape"></path>
    </g>
</svg>