<svg width="80" height="64" viewBox="0 0 80 64" fill="none" xmlns="http://www.w3.org/2000/svg">
    <path id="Vector" d="M55.2546 35.7635L60 35.7788V27.1906L55.3055 27.1805C54.9458 25.8395 54.4177 24.5498 53.7339 23.3423L57.0452 20.0593L50.993 13.9595L47.6766 17.2424C46.4712 16.5393 45.1789 15.9981 43.8328 15.6328L43.8481 11H35.1953L35.2207 15.5895C33.8777 15.9465 32.5853 16.4728 31.3744 17.1559L28.1675 13.929L22.0491 19.965L25.2586 23.1945C24.9097 23.7931 24.5992 24.4132 24.3288 25.0513C24.0595 25.6894 23.8323 26.3445 23.6487 27.0124L19 26.9869V35.5674L23.5977 35.5954C23.9554 36.9395 24.4836 38.232 25.1694 39.4413L21.7841 42.7828L27.8414 48.88L31.2241 45.5386C31.8281 45.8883 32.4534 46.1996 33.0963 46.4707C33.7393 46.739 34.3987 46.9661 35.0704 47.1507V52L43.6724 51.9949L43.6749 47.1965C45.0239 46.8395 46.3216 46.3106 47.5365 45.6226L50.9192 48.9972L57.0402 42.9713L53.6473 39.5814C54.3439 38.3831 54.8841 37.0999 55.2546 35.7636V35.7635ZM39.5 42.8636C37.2588 42.8637 35.068 42.1972 33.2045 40.9485C31.341 39.6999 29.8886 37.9251 29.0309 35.8487C28.1733 33.7722 27.9488 31.4874 28.3861 29.2831C28.8233 27.0787 29.9025 25.0539 31.4873 23.4647C33.072 21.8754 35.0912 20.7931 37.2893 20.3547C39.4874 19.9162 41.7658 20.1412 43.8364 21.0013C45.907 21.8614 47.6767 23.3179 48.9219 25.1867C50.167 27.0554 50.8316 29.2525 50.8316 31.5C50.8316 34.5138 49.6377 37.4042 47.5126 39.5353C45.3876 41.6664 42.5053 42.8636 39.5 42.8636Z" fill="currentColor"/>
</svg>