<svg viewBox="0 0 20 20" xmlns="http://www.w3.org/2000/svg">
  <path d="M16.1543 2.00391C17.7394 2.08421 19 3.39489 19 5V11H17.75V5C17.75 4.0335 16.9665 3.25 16 3.25H4C3.0335 3.25 2.25 4.0335 2.25 5V13C2.25 13.9665 3.0335 14.75 4 14.75H11V16H4C2.39489 16 1.08421 14.7394 1.00391 13.1543L1 13V5C1 3.34315 2.34315 2 4 2H16L16.1543 2.00391Z" fill="currentColor"/>
  <path d="M13.2727 19C13.2004 19 13.131 18.9649 13.0799 18.9024C13.0287 18.8399 13 18.7551 13 18.6667V11.3334C13 11.2754 13.0123 11.2185 13.0358 11.1682C13.0593 11.1179 13.0931 11.0759 13.1339 11.0464C13.1747 11.0169 13.2211 11.0009 13.2685 11C13.3159 10.9991 13.3626 11.0133 13.4042 11.0413L18.8587 14.7079C18.9015 14.7367 18.9372 14.779 18.962 14.8303C18.9869 14.8817 19 14.9403 19 15C19 15.0597 18.9869 15.1183 18.962 15.1697C18.9372 15.221 18.9015 15.2633 18.8587 15.2921L13.4042 18.9587C13.3639 18.9858 13.3187 19 13.2727 19Z" fill="currentColor"/>
</svg>