<?xml version="1.0" encoding="UTF-8" standalone="no"?>
<!-- Created with Inkscape (http://www.inkscape.org/) -->

<svg
   width="102.25267mm"
   height="7.4083328mm"
   viewBox="0 0 102.25267 7.4083328"
   version="1.1"
   id="svg314"
   xmlns="http://www.w3.org/2000/svg"
   xmlns:svg="http://www.w3.org/2000/svg">
  <defs
     id="defs311" />
  <g
     id="layer1"
     transform="translate(-21.206181,-16.375001)">
    <g
       id="g4555"
       transform="matrix(0.66413354,0,0,0.66413354,7.1224447,5.499814)"
       style="stroke-width:1.50572">
      <g
         aria-label="FEEL"
         id="text1640"
         style="font-weight:bold;font-size:10.5833px;line-height:1.25;font-family:'Roboto Mono';-inkscape-font-specification:'Roboto Mono, Bold';letter-spacing:0px;word-spacing:0px;fill:#4682b4;stroke-width:0.398388">
        <path
           d="m 26.200196,21.570576 v -1.256772 h -3.439587 v -2.182815 h 3.869535 V 16.868705 H 21.20618 v 8.025702 h 1.554429 v -3.323831 z"
           style="font-size:11.2889px"
           id="path4710" />
        <path
           d="m 32.820298,21.37765 v -1.223699 h -3.296271 v -2.022962 h 3.836462 v -1.262284 h -5.39089 v 8.025702 h 5.407427 v -1.25126 H 29.524027 V 21.37765 Z"
           style="font-size:11.2889px"
           id="path4712" />
        <path
           d="M 39.594741,21.37765 V 20.153951 H 36.29847 v -2.022962 h 3.836462 v -1.262284 h -5.390891 v 8.025702 h 5.407428 v -1.25126 H 36.29847 V 21.37765 Z"
           style="font-size:11.2889px"
           id="path4714" />
        <path
           d="M 43.089449,23.643147 V 16.868705 H 41.53502 v 8.025702 h 5.313721 v -1.25126 z"
           style="font-size:11.2889px"
           id="path4716" />
      </g>
      <g
         aria-label="Playground"
         id="text1644"
         style="font-weight:500;font-size:11.9945px;line-height:1.25;font-family:'Source Code Pro';-inkscape-font-specification:'Source Code Pro, Medium';letter-spacing:0px;word-spacing:0px;fill:#4682b4;stroke-width:0.398388">
        <path
           d="m 53.686799,24.879103 h 1.19945 v -2.998625 h 1.283411 c 1.703219,0 2.938653,-0.791637 2.938653,-2.494856 0,-1.763192 -1.211445,-2.362917 -2.938653,-2.362917 h -2.482861 z m 1.19945,-3.97018 v -2.926658 h 1.163466 c 1.247428,0 1.871142,0.359835 1.871142,1.403357 0,1.043521 -0.599725,1.523301 -1.871142,1.523301 z"
           id="path4719" />
        <path
           d="m 64.589804,25.023037 c 0.659698,0 1.055516,-0.119945 1.619258,-0.335846 l -0.287868,-0.887593 c -0.395819,0.167923 -0.731665,0.251884 -1.055516,0.251884 -0.647703,0 -1.103494,-0.335846 -1.103494,-1.151472 v -6.525008 h -3.202532 v 0.947566 h 2.015076 v 5.505475 c 0,1.415351 0.707676,2.194994 2.015076,2.194994 z"
           id="path4721" />
        <path
           d="m 69.831406,25.023037 c 0.803631,0 1.619257,-0.419808 2.242971,-0.899588 h 0.03598 l 0.09596,0.755654 h 0.971554 V 21.35272 c 0,-1.547291 -0.82762,-2.482862 -2.446878,-2.482862 -1.019532,0 -1.991087,0.431802 -2.63879,0.827621 L 68.536,20.50111 c 0.575736,-0.335846 1.271417,-0.659697 1.991087,-0.659697 1.043521,0 1.427345,0.58773 1.463329,1.3074 -2.950647,0.227896 -4.138103,0.863604 -4.138103,2.182999 0,1.031527 0.85161,1.691225 1.979093,1.691225 z m 0.335846,-0.947566 c -0.635709,0 -1.163467,-0.23989 -1.163467,-0.82762 0,-0.707676 0.683687,-1.163467 2.986631,-1.343384 v 1.391362 c -0.599725,0.491774 -1.19945,0.779642 -1.823164,0.779642 z"
           id="path4723" />
        <path
           d="m 75.744699,27.337975 c 1.367373,0 2.087043,-0.839615 2.554828,-2.087043 l 2.506851,-6.23714 h -1.127483 l -1.163467,3.058598 c -0.191912,0.539752 -0.407813,1.151472 -0.599725,1.715213 h -0.04798 C 77.627835,23.211867 77.39994,22.600148 77.184039,22.07239 l -1.319395,-3.058598 h -1.187456 l 2.674774,5.829327 -0.155929,0.407813 c -0.263879,0.647703 -0.731664,1.127483 -1.511307,1.127483 -0.179917,0 -0.359835,-0.03598 -0.503769,-0.08396 l -0.23989,0.923576 c 0.215901,0.07197 0.515764,0.119945 0.803632,0.119945 z"
           id="path4725" />
        <path
           d="m 84.82454,27.529887 c 2.027071,0 3.322477,-0.935571 3.322477,-2.075048 0,-0.995544 -0.755654,-1.403357 -2.278955,-1.403357 h -1.247428 c -0.755654,0 -1.163467,-0.191912 -1.163467,-0.611719 0,-0.251885 0.143934,-0.443797 0.407813,-0.61172 0.311857,0.13194 0.659698,0.191912 0.947566,0.191912 1.283411,0 2.302944,-0.71967 2.302944,-2.003081 0,-0.419808 -0.203907,-0.815626 -0.431802,-1.067511 h 1.427345 v -0.935571 h -2.410894 c -0.263879,-0.09596 -0.551747,-0.143934 -0.887593,-0.143934 -1.271417,0 -2.362917,0.803632 -2.362917,2.111032 0,0.695681 0.323852,1.211445 0.731665,1.511307 v 0.04798 c -0.431802,0.299863 -0.695681,0.71967 -0.695681,1.103494 0,0.491775 0.287868,0.791637 0.599725,0.971555 v 0.04798 c -0.623714,0.34784 -0.947566,0.791637 -0.947566,1.271417 0,1.031527 1.019533,1.595268 2.686768,1.595268 z m -0.01199,-5.27758 c -0.671692,0 -1.235434,-0.47978 -1.235434,-1.271417 0,-0.767648 0.563742,-1.271417 1.235434,-1.271417 0.671692,0 1.223439,0.503769 1.223439,1.271417 0,0.791637 -0.551747,1.271417 -1.223439,1.271417 z m 0.131939,4.44996 c -1.163466,0 -1.811169,-0.347841 -1.811169,-0.911582 0,-0.299863 0.179917,-0.599725 0.671692,-0.875599 0.23989,0.07197 0.527758,0.09596 0.887593,0.09596 h 1.043521 c 0.827621,0 1.247428,0.13194 1.247428,0.647703 0,0.539753 -0.791637,1.043522 -2.039065,1.043522 z"
           id="path4727" />
        <path
           d="m 90.186087,24.879103 h 1.187455 v -3.334471 c 0.647703,-1.175461 1.463329,-1.607263 2.302944,-1.607263 0.443797,0 0.671692,0.05997 1.067511,0.191912 l 0.263879,-1.019533 c -0.359835,-0.167923 -0.695681,-0.23989 -1.151472,-0.23989 -1.043522,0 -1.955104,0.563742 -2.554829,1.511307 h -0.03598 l -0.09596,-1.367373 h -0.983549 z"
           id="path4729" />
        <path
           d="m 99.325901,25.023037 c 1.535299,0 2.926659,-1.127483 2.926659,-3.070592 0,-1.955104 -1.39136,-3.082587 -2.926659,-3.082587 -1.535296,0 -2.926658,1.127483 -2.926658,3.082587 0,1.943109 1.391362,3.070592 2.926658,3.070592 z m 0,-0.971555 c -1.043522,0 -1.703219,-0.839615 -1.703219,-2.099037 0,-1.259423 0.659697,-2.099038 1.703219,-2.099038 1.043519,0 1.703219,0.839615 1.703219,2.099038 0,1.259422 -0.6597,2.099037 -1.703219,2.099037 z"
           id="path4731" />
        <path
           d="m 105.80294,25.023037 c 0.88759,0 1.54729,-0.455791 2.12302,-1.115489 h 0.048 l 0.096,0.971555 h 0.97155 v -5.865311 h -1.18746 v 4.018158 c -0.57573,0.695681 -1.03152,0.971554 -1.64324,0.971554 -0.88759,0 -1.22344,-0.47978 -1.22344,-1.511307 v -3.478405 h -1.18746 v 3.634334 c 0,1.535296 0.62372,2.374911 2.00309,2.374911 z"
           id="path4733" />
        <path
           d="m 111.17648,24.879103 h 1.18745 v -4.042147 c 0.59973,-0.623714 1.04352,-0.935571 1.66724,-0.935571 0.88759,0 1.22344,0.47978 1.22344,1.499313 v 3.478405 h 1.18745 v -3.634334 c 0,-1.523301 -0.62371,-2.374911 -1.99109,-2.374911 -0.91158,0 -1.57127,0.47978 -2.15901,1.0915 h -0.048 l -0.096,-0.947566 h -0.97155 z"
           id="path4735" />
        <path
           d="m 120.52019,25.023037 c 0.69568,0 1.36738,-0.395819 1.83516,-0.863604 h 0.036 l 0.096,0.71967 h 0.97156 v -8.504101 h -1.18746 v 2.182999 l 0.06,1.043522 h -0.036 c -0.47978,-0.467786 -0.99554,-0.731665 -1.67923,-0.731665 -1.35538,0 -2.6268,1.175461 -2.6268,3.082587 0,1.943109 1.00754,3.070592 2.53084,3.070592 z m 0.27588,-0.983549 c -0.99555,0 -1.58328,-0.755654 -1.58328,-2.099038 0,-1.271417 0.75566,-2.075048 1.66724,-2.075048 0.46778,0 0.92357,0.155928 1.39136,0.599725 v 2.782724 c -0.45579,0.527758 -0.94757,0.791637 -1.47532,0.791637 z"
           id="path4737" />
      </g>
    </g>
  </g>
</svg>
