<?xml version="1.0" encoding="UTF-8" standalone="no"?>
<svg
   xmlns:dc="http://purl.org/dc/elements/1.1/"
   xmlns:cc="http://creativecommons.org/ns#"
   xmlns:rdf="http://www.w3.org/1999/02/22-rdf-syntax-ns#"
   xmlns:svg="http://www.w3.org/2000/svg"
   xmlns="http://www.w3.org/2000/svg"
   viewBox="0 0 136 105.76"
   height="105.76"
   width="136"
   xml:space="preserve"
   id="svg2"
   version="1.1"><metadata
     id="metadata8"><rdf:RDF><cc:Work
         rdf:about=""><dc:format>image/svg+xml</dc:format><dc:type
           rdf:resource="http://purl.org/dc/dcmitype/StillImage" /></cc:Work></rdf:RDF></metadata><defs
     id="defs6" /><g
     transform="matrix(1.3333333,0,0,-1.3333333,0,105.76)"
     id="g10"><g
       id="g12"><path
         id="path14"
         style="fill:none;stroke:#404040;stroke-width:0.72000003;stroke-linecap:butt;stroke-linejoin:miter;stroke-miterlimit:10;stroke-dasharray:2.88, 2.16;stroke-dashoffset:0;stroke-opacity:1"
         d="m 7.2,72.54 c 0,2.485 2.0147,4.5 4.5,4.5 h 17.999 c 2.486,0 4.5,-2.015 4.5,-4.5 V 6.6599 C 34.199,4.1747 32.185,2.16 29.699,2.16 H 11.7 c -2.4853,0 -4.5,2.0147 -4.5,4.4999 z" /></g><path
       id="path16"
       style="fill:none;stroke:#000000;stroke-width:1.20000005;stroke-linecap:butt;stroke-linejoin:miter;stroke-miterlimit:10;stroke-dasharray:none;stroke-opacity:1"
       d="m 1.44,63.12 h 99.58" /><path
       id="path18"
       style="fill:none;stroke:#000000;stroke-width:1.20000005;stroke-linecap:butt;stroke-linejoin:miter;stroke-miterlimit:10;stroke-dasharray:none;stroke-opacity:1"
       d="m 1.44,39.6 h 99.58" /><path
       id="path20"
       style="fill:none;stroke:#000000;stroke-width:1.20000005;stroke-linecap:butt;stroke-linejoin:miter;stroke-miterlimit:10;stroke-dasharray:none;stroke-opacity:1"
       d="m 1.44,14.4 h 99.58" /><path
       id="path22"
       style="fill:none;stroke:#000000;stroke-width:1.20000005;stroke-linecap:butt;stroke-linejoin:miter;stroke-miterlimit:10;stroke-dasharray:none;stroke-opacity:1"
       d="M 49.68,63.12 V 4.5706" /><path
       id="path24"
       style="fill:none;stroke:#000000;stroke-width:1.20000005;stroke-linecap:butt;stroke-linejoin:miter;stroke-miterlimit:10;stroke-dasharray:none;stroke-opacity:1"
       d="m 39.84,14.52 c 0,5.434 4.406,9.84 9.84,9.84 5.434,0 9.84,-4.406 9.84,-9.84 0,-5.4345 -4.406,-9.84 -9.84,-9.84 -5.434,0 -9.84,4.4055 -9.84,9.84 z" /><path
       id="path26"
       style="fill:#000000;fill-opacity:1;fill-rule:evenodd;stroke:none"
       d="m 43.44,62.46 c 0,3.612 2.955,6.54 6.6,6.54 3.645,0 6.6,-2.928 6.6,-6.54 0,-3.612 -2.955,-6.54 -6.6,-6.54 -3.645,0 -6.6,2.928 -6.6,6.54 z" /><path
       id="path28"
       style="fill:none;stroke:#000000;stroke-width:1.20000005;stroke-linecap:butt;stroke-linejoin:miter;stroke-miterlimit:10;stroke-dasharray:none;stroke-opacity:1"
       d="m 71.4,39.6 c 0,5.434 4.406,9.84 9.84,9.84 5.434,0 9.84,-4.406 9.84,-9.84 0,-5.434 -4.406,-9.84 -9.84,-9.84 -5.434,0 -9.84,4.406 -9.84,9.84 z" /><path
       id="path30"
       style="fill:#000000;fill-opacity:1;fill-rule:evenodd;stroke:none"
       d="m 74.64,15.06 c 0,3.612 2.955,6.54 6.6,6.54 3.645,0 6.6,-2.928 6.6,-6.54 0,-3.612 -2.955,-6.54 -6.6,-6.54 -3.645,0 -6.6,2.928 -6.6,6.54 z" /><path
       id="path32"
       style="fill:none;stroke:#000000;stroke-width:1.20000005;stroke-linecap:butt;stroke-linejoin:miter;stroke-miterlimit:10;stroke-dasharray:none;stroke-opacity:1"
       d="M 81.12,49.08 V 15.585" /><path
       id="path34"
       style="fill:#ffffff;fill-opacity:1;fill-rule:evenodd;stroke:none"
       d="M 13.32,55.44 H 29.16 V 70.2 H 13.32 Z" /><path
       id="path36"
       style="fill:none;stroke:#000000;stroke-width:1.20000005;stroke-linecap:butt;stroke-linejoin:miter;stroke-miterlimit:10;stroke-dasharray:none;stroke-opacity:1"
       d="M 13.32,55.44 H 29.16 V 70.2 H 13.32 Z" /><path
       id="path38"
       style="fill:#ffffff;fill-opacity:1;fill-rule:evenodd;stroke:none"
       d="M 12.96,7.44 H 28.8 V 22.2 H 12.96 Z" /><path
       id="path40"
       style="fill:none;stroke:#000000;stroke-width:1.20000005;stroke-linecap:butt;stroke-linejoin:miter;stroke-miterlimit:10;stroke-dasharray:none;stroke-opacity:1"
       d="M 12.96,7.44 H 28.8 V 22.2 H 12.96 Z" /></g></svg>