<svg width="151" height="96" xmlns="http://www.w3.org/2000/svg" xmlns:xlink="http://www.w3.org/1999/xlink" overflow="hidden"><defs><clipPath id="clip0"><path d="M0 0 151 0 151 96 0 96Z" fill-rule="evenodd" clip-rule="evenodd"/></clipPath></defs><g clip-path="url(#clip0)"><rect x="0" y="0" width="151" height="95.8942" fill="#FFFFFF" fill-opacity="0" transform="scale(1 1.0011)"/><path d="M0 7.32525C-7.32745e-15 3.27963 7.38728-2.4398e-15 16.5-4.06633e-15 25.6126-5.69286e-15 32.9999 3.27963 32.9999 7.32525L32.9999 36.6262C32.9999 40.6719 25.6126 43.9515 16.5 43.9515 7.38728 43.9515 7.32745e-15 40.6719 2.44248e-15 36.6262Z" fill-rule="evenodd" transform="matrix(1 0 -0 1.0011 19.5001 16.5001)"/><path d="M32.9999 7.32525C32.9999 11.3709 25.6126 14.6505 16.5 14.6505 7.38728 14.6505 7.32745e-15 11.3709 2.44248e-15 7.32525" stroke="#FFFFFF" stroke-width="1.00005" stroke-miterlimit="8" fill="none" fill-rule="evenodd" transform="matrix(1 0 -0 1.0011 19.5001 16.5001)"/><path d="M0 7.32525C-7.32745e-15 3.27963 7.38728-2.4398e-15 16.5-4.06633e-15 25.6126-5.69286e-15 32.9999 3.27963 32.9999 7.32525L32.9999 36.6262C32.9999 40.6719 25.6126 43.9515 16.5 43.9515 7.38728 43.9515 7.32745e-15 40.6719 2.44248e-15 36.6262Z" stroke="#FFFFFF" stroke-width="1.00005" stroke-miterlimit="8" fill="none" fill-rule="evenodd" transform="matrix(1 0 -0 1.0011 19.5001 16.5001)"/><path d="M1.04168e-05-1.50002 10.6014-1.49995 10.6014 1.5001-1.04168e-05 1.50002ZM9.10138-4.50001 15.1014 0.000104871 9.10131 4.50014Z" transform="matrix(1 0 -0 1.0011 57.5 36.5001)"/><path d="M0 3.00008C-4.05364e-16 1.34318 1.34318 -4.05364e-16 3.00008 -8.10728e-16L14.9999 0C16.6568 -8.10728e-16 18 1.34318 18 3.00008L18 47.9437C18 49.6006 16.6568 50.9438 14.9999 50.9438L3.00008 50.9438C1.34318 50.9438 0 49.6006 0 47.9437Z" stroke="#404040" stroke-width="1.00005" stroke-miterlimit="8" stroke-dasharray="3.00015 1.00005" fill="#FFFFFF" fill-rule="evenodd" transform="matrix(1 0 -0 1.0011 80.5 11.5001)"/><path d="M0 0 66.7539 0.000104871" stroke="#000000" stroke-width="1.00005" stroke-miterlimit="8" fill="none" fill-rule="evenodd" transform="matrix(1 0 -0 1.0011 76.5 21.5001)"/><path d="M0 0 66.7539 0.000104871" stroke="#000000" stroke-width="1.00005" stroke-miterlimit="8" fill="none" fill-rule="evenodd" transform="matrix(1 0 -0 1.0011 76.5 36.5001)"/><path d="M0 0 66.7539 0.000104871" stroke="#000000" stroke-width="1.00005" stroke-miterlimit="8" fill="none" fill-rule="evenodd" transform="matrix(1 0 -0 1.0011 76.5 53.5001)"/><path d="M0 0 0.000104871 38.7378" stroke="#000000" stroke-width="1.00005" stroke-miterlimit="8" fill="none" fill-rule="evenodd" transform="matrix(1 0 -0 1.0011 108.5 21.5001)"/><path d="M0 6.49283C-8.27539e-16 2.90694 2.91016 -8.26624e-16 6.50002-1.65325e-15 10.0899-3.3065e-15 13 2.90694 13 6.49283 13 10.0787 10.0899 12.9857 6.50002 12.9857 2.91016 12.9857-4.13769e-15 10.0787 0 6.49283Z" stroke="#000000" stroke-width="1.00005" stroke-miterlimit="8" fill="none" fill-rule="evenodd" transform="matrix(1 0 -0 1.0011 102.5 47.5001)"/><path d="M0 4.49504C-5.72913e-16 2.0125 2.01473 -5.72278e-16 4.50002-1.14456e-15 6.98531-2.28911e-15 9.00004 2.0125 9.00004 4.49504 9.00004 6.97758 6.98531 8.99008 4.50002 8.99008 2.01473 8.99008-2.86456e-15 6.97758 0 4.49504Z" fill-rule="evenodd" transform="matrix(1 0 -0 1.0011 104 17)"/><path d="M0 6.49283C-8.27539e-16 2.90694 2.91016 -8.26624e-16 6.50002-1.65325e-15 10.0899-3.3065e-15 13 2.90694 13 6.49283 13 10.0787 10.0899 12.9857 6.50002 12.9857 2.91016 12.9857-4.13769e-15 10.0787 0 6.49283Z" stroke="#000000" stroke-width="1.00005" stroke-miterlimit="8" fill="none" fill-rule="evenodd" transform="matrix(1 0 -0 1.0011 123.5 30.5001)"/><path d="M0 3.99559C-5.72913e-16 1.78889 2.01473 -5.08692e-16 4.50002-1.01738e-15 6.98531-2.03477e-15 9.00004 1.78889 9.00004 3.99559 9.00004 6.20229 6.98531 7.99118 4.50002 7.99118 2.01473 7.99118-2.86456e-15 6.20229 0 3.99559Z" fill-rule="evenodd" transform="matrix(1 0 -0 1.0011 125 49)"/><path d="M0 0 0.000104871 22.4539" stroke="#000000" stroke-width="1.00005" stroke-miterlimit="8" fill="none" fill-rule="evenodd" transform="matrix(1 0 -0 1.0011 130.5 30.5001)"/><rect x="0" y="0" width="11" height="9.98897" stroke="#000000" stroke-width="1.00005" stroke-miterlimit="8" fill="#FFFFFF" transform="matrix(1 0 -0 1.0011 84.5 16.5001)"/><rect x="0" y="0" width="9.99999" height="9.98897" stroke="#000000" stroke-width="1.00005" stroke-miterlimit="8" fill="#FFFFFF" transform="matrix(1 0 -0 1.0011 84.5 48.5001)"/></g></svg>