<?xml version="1.0" encoding="UTF-8" standalone="no"?>
<svg
   xmlns:dc="http://purl.org/dc/elements/1.1/"
   xmlns:cc="http://creativecommons.org/ns#"
   xmlns:rdf="http://www.w3.org/1999/02/22-rdf-syntax-ns#"
   xmlns:svg="http://www.w3.org/2000/svg"
   xmlns="http://www.w3.org/2000/svg"
   viewBox="0 0 151.2 96"
   height="96"
   width="151.2"
   xml:space="preserve"
   id="svg2"
   version="1.1"><metadata
     id="metadata8"><rdf:RDF><cc:Work
         rdf:about=""><dc:format>image/svg+xml</dc:format><dc:type
           rdf:resource="http://purl.org/dc/dcmitype/StillImage" /></cc:Work></rdf:RDF></metadata><defs
     id="defs6"><clipPath
       id="clipPath44"
       clipPathUnits="userSpaceOnUse"><path
         style="clip-rule:evenodd"
         id="path42"
         d="M 1.69e-6,0 H 113.4 V 72 H 1.69e-6 Z" /></clipPath></defs><g
     transform="matrix(1.3333333,0,0,-1.3333333,0,96)"
     id="g10"><path
       id="path12"
       style="fill:none;stroke:#000000;stroke-width:1.20000005;stroke-linecap:butt;stroke-linejoin:miter;stroke-miterlimit:10;stroke-dasharray:none;stroke-opacity:1"
       d="M 64.68,60.72 H 111.9" /><path
       id="path14"
       style="fill:none;stroke:#000000;stroke-width:1.20000005;stroke-linecap:butt;stroke-linejoin:miter;stroke-miterlimit:10;stroke-dasharray:none;stroke-opacity:1"
       d="M 64.68,46.56 H 111.9" /><path
       id="path16"
       style="fill:none;stroke:#000000;stroke-width:1.20000005;stroke-linecap:butt;stroke-linejoin:miter;stroke-miterlimit:10;stroke-dasharray:none;stroke-opacity:1"
       d="M 64.68,31.44 H 111.9" /><path
       id="path18"
       style="fill:none;stroke:#000000;stroke-width:1.20000005;stroke-linecap:butt;stroke-linejoin:miter;stroke-miterlimit:10;stroke-dasharray:none;stroke-opacity:1"
       d="M 79.32,60.72 V 26.092" /><path
       id="path20"
       style="fill:none;stroke:#000000;stroke-width:1.20000005;stroke-linecap:butt;stroke-linejoin:miter;stroke-miterlimit:10;stroke-dasharray:none;stroke-opacity:1"
       d="m 73.44,31.56 c 0,3.247 2.633,5.88 5.88,5.88 3.247,0 5.88,-2.633 5.88,-5.88 0,-3.247 -2.633,-5.88 -5.88,-5.88 -3.247,0 -5.88,2.633 -5.88,5.88 z" /><path
       id="path22"
       style="fill:#000000;fill-opacity:1;fill-rule:evenodd;stroke:none"
       d="m 75.6,60.24 c 0,2.187 1.773,3.96 3.96,3.96 2.187,0 3.96,-1.773 3.96,-3.96 0,-2.187 -1.773,-3.96 -3.96,-3.96 -2.187,0 -3.96,1.773 -3.96,3.96 z" /><path
       id="path24"
       style="fill:none;stroke:#000000;stroke-width:1.20000005;stroke-linecap:butt;stroke-linejoin:miter;stroke-miterlimit:10;stroke-dasharray:none;stroke-opacity:1"
       d="m 92.4,46.56 c 0,3.247 2.633,5.88 5.88,5.88 3.25,0 5.88,-2.633 5.88,-5.88 0,-3.247 -2.63,-5.88 -5.88,-5.88 -3.247,0 -5.88,2.633 -5.88,5.88 z" /><path
       id="path26"
       style="fill:#000000;fill-opacity:1;fill-rule:evenodd;stroke:none"
       d="m 94.32,31.86 c 0,2.154 1.773,3.9 3.96,3.9 2.19,0 3.96,-1.746 3.96,-3.9 0,-2.154 -1.77,-3.9 -3.96,-3.9 -2.187,0 -3.96,1.746 -3.96,3.9 z" /><path
       id="path28"
       style="fill:none;stroke:#000000;stroke-width:1.20000005;stroke-linecap:butt;stroke-linejoin:miter;stroke-miterlimit:10;stroke-dasharray:none;stroke-opacity:1"
       d="M 98.16,52.2 V 32.129" /><path
       id="path30"
       style="fill:#000000;fill-opacity:1;fill-rule:evenodd;stroke:none"
       d="M 12.6,26.28 H 40.8 V 52.92 H 12.6 Z" /><path
       id="path32"
       style="fill:#000000;fill-opacity:1;fill-rule:evenodd;stroke:none"
       d="m 40.8,52.92 8.88,8.88 V 35.16 L 40.8,26.28 Z" /><path
       id="path34"
       style="fill:#323232;fill-opacity:1;fill-rule:evenodd;stroke:none"
       d="m 12.6,52.92 8.88,8.88 h 28.2 L 40.8,52.92 Z" /><path
       id="path36"
       style="fill:none;stroke:#ffffff;stroke-width:0.95999998;stroke-linecap:butt;stroke-linejoin:miter;stroke-miterlimit:10;stroke-dasharray:none;stroke-opacity:1"
       d="m 12.6,52.92 8.88,8.88 h 28.2 V 35.16 L 40.8,26.28 H 12.6 Z m 0,0 h 28.2 l 8.88,8.88 M 40.8,52.92 V 26.28" /><g
       id="g38"><g
         clip-path="url(#clipPath44)"
         id="g40"><text
           id="text48"
           style="font-variant:normal;font-weight:normal;font-size:18.02400017px;font-family:Calibri;-inkscape-font-specification:Calibri;writing-mode:lr-tb;fill:#ffffff;fill-opacity:1;fill-rule:nonzero;stroke:none"
           transform="matrix(1,0,0,-1,22.512,33.528)"><tspan
             id="tspan46"
             y="0"
             x="0">?</tspan></text>
</g></g><path
       id="path50"
       style="fill:#000000;fill-opacity:1;fill-rule:nonzero;stroke:none"
       d="m 53.1,47.04 h 5.84 V 45 H 53.1 Z m 4.82,2.04 4.08,-3.06 -4.08,-3.06 z" /></g></svg>