<?xml version="1.0" encoding="UTF-8" standalone="no"?>
<svg
   xmlns:dc="http://purl.org/dc/elements/1.1/"
   xmlns:cc="http://creativecommons.org/ns#"
   xmlns:rdf="http://www.w3.org/1999/02/22-rdf-syntax-ns#"
   xmlns:svg="http://www.w3.org/2000/svg"
   xmlns="http://www.w3.org/2000/svg"
   viewBox="0 0 170.08 96"
   height="96"
   width="170.08"
   xml:space="preserve"
   id="svg2"
   version="1.1"><metadata
     id="metadata8"><rdf:RDF><cc:Work
         rdf:about=""><dc:format>image/svg+xml</dc:format><dc:type
           rdf:resource="http://purl.org/dc/dcmitype/StillImage" /></cc:Work></rdf:RDF></metadata><defs
     id="defs6"><clipPath
       id="clipPath44"
       clipPathUnits="userSpaceOnUse"><path
         style="clip-rule:evenodd"
         id="path42"
         d="M 1.901e-6,0 H 127.56 V 72 H 1.901e-6 Z" /></clipPath></defs><g
     transform="matrix(1.3333333,0,0,-1.3333333,0,96)"
     id="g10"><path
       id="path12"
       style="fill:none;stroke:#000000;stroke-width:1.20000005;stroke-linecap:butt;stroke-linejoin:miter;stroke-miterlimit:10;stroke-dasharray:none;stroke-opacity:1"
       d="m 67.68,58.08 h 58.05" /><path
       id="path14"
       style="fill:none;stroke:#000000;stroke-width:1.20000005;stroke-linecap:butt;stroke-linejoin:miter;stroke-miterlimit:10;stroke-dasharray:none;stroke-opacity:1"
       d="m 67.68,40.8 h 58.05" /><path
       id="path16"
       style="fill:none;stroke:#000000;stroke-width:1.20000005;stroke-linecap:butt;stroke-linejoin:miter;stroke-miterlimit:10;stroke-dasharray:none;stroke-opacity:1"
       d="m 67.68,22.2 h 58.05" /><path
       id="path18"
       style="fill:none;stroke:#000000;stroke-width:1.20000005;stroke-linecap:butt;stroke-linejoin:miter;stroke-miterlimit:10;stroke-dasharray:none;stroke-opacity:1"
       d="M 85.8,58.08 V 15.516" /><path
       id="path20"
       style="fill:none;stroke:#000000;stroke-width:1.20000005;stroke-linecap:butt;stroke-linejoin:miter;stroke-miterlimit:10;stroke-dasharray:none;stroke-opacity:1"
       d="m 78.6,22.26 c 0,4.01 3.25,7.26 7.26,7.26 4.01,0 7.26,-3.25 7.26,-7.26 0,-4.01 -3.25,-7.26 -7.26,-7.26 -4.01,0 -7.26,3.25 -7.26,7.26 z" /><path
       id="path22"
       style="fill:#000000;fill-opacity:1;fill-rule:evenodd;stroke:none"
       d="m 81.24,57.54 c 0,2.684 2.176,4.86 4.86,4.86 2.684,0 4.86,-2.176 4.86,-4.86 0,-2.684 -2.176,-4.86 -4.86,-4.86 -2.684,0 -4.86,2.176 -4.86,4.86 z" /><path
       id="path24"
       style="fill:none;stroke:#000000;stroke-width:1.20000005;stroke-linecap:butt;stroke-linejoin:miter;stroke-miterlimit:10;stroke-dasharray:none;stroke-opacity:1"
       d="m 101.76,40.74 c 0,4.01 3.25,7.26 7.26,7.26 4.01,0 7.26,-3.25 7.26,-7.26 0,-4.01 -3.25,-7.26 -7.26,-7.26 -4.01,0 -7.26,3.25 -7.26,7.26 z" /><path
       id="path26"
       style="fill:#000000;fill-opacity:1;fill-rule:evenodd;stroke:none"
       d="m 104.28,22.62 c 0,2.684 2.15,4.86 4.8,4.86 2.65,0 4.8,-2.176 4.8,-4.86 0,-2.684 -2.15,-4.86 -4.8,-4.86 -2.65,0 -4.8,2.176 -4.8,4.86 z" /><path
       id="path28"
       style="fill:none;stroke:#000000;stroke-width:1.20000005;stroke-linecap:butt;stroke-linejoin:miter;stroke-miterlimit:10;stroke-dasharray:none;stroke-opacity:1"
       d="M 109.08,47.76 V 23.088" /><path
       id="path30"
       style="fill:#000000;fill-opacity:1;fill-rule:evenodd;stroke:none"
       d="M 1.68,17.76 H 35.79 V 50.07 H 1.68 Z" /><path
       id="path32"
       style="fill:#000000;fill-opacity:1;fill-rule:evenodd;stroke:none"
       d="M 35.79,50.07 46.56,60.84 V 28.53 L 35.79,17.76 Z" /><path
       id="path34"
       style="fill:#323232;fill-opacity:1;fill-rule:evenodd;stroke:none"
       d="M 1.68,50.07 12.45,60.84 H 46.56 L 35.79,50.07 Z" /><path
       id="path36"
       style="fill:none;stroke:#ffffff;stroke-width:0.95999998;stroke-linecap:butt;stroke-linejoin:miter;stroke-miterlimit:10;stroke-dasharray:none;stroke-opacity:1"
       d="M 1.68,50.07 12.45,60.84 H 46.56 V 28.53 L 35.79,17.76 H 1.68 Z m 0,0 H 35.79 L 46.56,60.84 M 35.79,50.07 V 17.76" /><g
       id="g38"><g
         clip-path="url(#clipPath44)"
         id="g40"><text
           id="text48"
           style="font-variant:normal;font-weight:normal;font-size:18.02400017px;font-family:Calibri;-inkscape-font-specification:Calibri;writing-mode:lr-tb;fill:#ffffff;fill-opacity:1;fill-rule:nonzero;stroke:none"
           transform="matrix(1,0,0,-1,14.592,27.888)"><tspan
             id="tspan46"
             y="0"
             x="0">?</tspan></text>
</g></g><path
       id="path50"
       style="fill:#000000;fill-opacity:1;fill-rule:nonzero;stroke:none"
       d="M 50.22,40.56 H 60.461 V 38.52 H 50.22 Z m 9.221,2.04 4.08,-3.06 -4.08,-3.06 z" /></g></svg>