<?xml version="1.0" encoding="UTF-8" standalone="no"?>
<svg
   xmlns:dc="http://purl.org/dc/elements/1.1/"
   xmlns:cc="http://creativecommons.org/ns#"
   xmlns:rdf="http://www.w3.org/1999/02/22-rdf-syntax-ns#"
   xmlns:svg="http://www.w3.org/2000/svg"
   xmlns="http://www.w3.org/2000/svg"
   viewBox="0 0 128.48 143.67999"
   height="143.67999"
   width="128.48"
   xml:space="preserve"
   id="svg2"
   version="1.1"><metadata
     id="metadata8"><rdf:RDF><cc:Work
         rdf:about=""><dc:format>image/svg+xml</dc:format><dc:type
           rdf:resource="http://purl.org/dc/dcmitype/StillImage" /></cc:Work></rdf:RDF></metadata><defs
     id="defs6"><clipPath
       id="clipPath20"
       clipPathUnits="userSpaceOnUse"><path
         style="clip-rule:evenodd"
         id="path18"
         d="M -2.384e-6,107.76 H 96.36 V 7.629e-6 L -6.199e-6,0" /></clipPath><clipPath
       id="clipPath30"
       clipPathUnits="userSpaceOnUse"><path
         style="clip-rule:evenodd"
         id="path28"
         d="M 1.907e-6,107.76 H 96.36 V 3.0518e-5 L 0,2.2888e-5" /></clipPath><clipPath
       id="clipPath40"
       clipPathUnits="userSpaceOnUse"><path
         style="clip-rule:evenodd"
         id="path38"
         d="M -1.5259e-5,107.76 H 96.36 V 3.8147e-5 L -3.0518e-5,3.0518e-5" /></clipPath></defs><g
     transform="matrix(1.3333333,0,0,-1.3333333,0,143.68)"
     id="g10"><path
       id="path12"
       style="fill:none;stroke:#000000;stroke-width:2.51999998;stroke-linecap:butt;stroke-linejoin:miter;stroke-miterlimit:10;stroke-dasharray:none;stroke-opacity:1"
       d="m 39.3,53.22 c 0,5.037 4.003,9.12 8.94,9.12 4.937,0 8.94,-4.083 8.94,-9.12 0,-5.037 -4.003,-9.12 -8.94,-9.12 -4.937,0 -8.94,4.083 -8.94,9.12 z" /><g
       id="g14"><g
         clip-path="url(#clipPath20)"
         id="g16"><path
           id="path22"
           style="fill:none;stroke:#000000;stroke-width:2.5;stroke-linecap:butt;stroke-linejoin:miter;stroke-miterlimit:10;stroke-dasharray:none;stroke-opacity:1"
           d="M 3.237,80.894 C -2.0212,72.143 13.841,52.956 38.667,38.04 63.493,23.123 87.88,18.125 93.138,26.876 98.396,35.627 82.534,54.813 57.708,69.73 32.883,84.646 8.4951,89.645 3.237,80.894 Z" /></g></g><g
       id="g24"><g
         clip-path="url(#clipPath30)"
         id="g26"><path
           id="path32"
           style="fill:none;stroke:#000000;stroke-width:2.51999998;stroke-linecap:butt;stroke-linejoin:miter;stroke-miterlimit:10;stroke-dasharray:none;stroke-opacity:1"
           d="m 46.86,106.26 c -10.206,0 -18.48,-23.478 -18.48,-52.44 0,-28.962 8.274,-52.44 18.48,-52.44 10.206,0 18.48,23.478 18.48,52.44 0,28.962 -8.274,52.44 -18.48,52.44 z" /></g></g><g
       id="g34"><g
         clip-path="url(#clipPath40)"
         id="g36"><path
           id="path42"
           style="fill:none;stroke:#000000;stroke-width:2.5;stroke-linecap:butt;stroke-linejoin:miter;stroke-miterlimit:10;stroke-dasharray:none;stroke-opacity:1"
           d="M 93.138,78.227 C 87.88,86.978 63.492,81.98 38.667,67.063 13.841,52.146 -2.0215,32.96 3.2366,24.209 8.4948,15.458 32.882,20.456 57.708,35.373 82.534,50.29 98.396,69.476 93.138,78.227 Z" /></g></g></g></svg>