<?xml version="1.0" encoding="UTF-8" standalone="no"?>
<svg
   xmlns:dc="http://purl.org/dc/elements/1.1/"
   xmlns:cc="http://creativecommons.org/ns#"
   xmlns:rdf="http://www.w3.org/1999/02/22-rdf-syntax-ns#"
   xmlns:svg="http://www.w3.org/2000/svg"
   xmlns="http://www.w3.org/2000/svg"
   viewBox="0 0 170.08 96"
   height="96"
   width="170.08"
   xml:space="preserve"
   id="svg2"
   version="1.1"><metadata
     id="metadata8"><rdf:RDF><cc:Work
         rdf:about=""><dc:format>image/svg+xml</dc:format><dc:type
           rdf:resource="http://purl.org/dc/dcmitype/StillImage" /></cc:Work></rdf:RDF></metadata><defs
     id="defs6"><clipPath
       id="clipPath20"
       clipPathUnits="userSpaceOnUse"><path
         style="clip-rule:evenodd"
         id="path18"
         d="M -2.861e-6,72 H 127.56 V 3.0518e-5 L -1.907e-6,0" /></clipPath><clipPath
       id="clipPath30"
       clipPathUnits="userSpaceOnUse"><path
         style="clip-rule:evenodd"
         id="path28"
         d="M -1.907e-6,72 H 127.56 V 2.2888e-5 L -1.907e-6,1.5259e-5" /></clipPath><clipPath
       id="clipPath40"
       clipPathUnits="userSpaceOnUse"><path
         style="clip-rule:evenodd"
         id="path38"
         d="M -7.629e-6,72 H 127.56 V 3.0518e-5 L -1.5259e-5,1.5259e-5" /></clipPath></defs><g
     transform="matrix(1.3333333,0,0,-1.3333333,0,96)"
     id="g10"><path
       id="path12"
       style="fill:none;stroke:#000000;stroke-width:1.20000005;stroke-linecap:butt;stroke-linejoin:miter;stroke-miterlimit:10;stroke-dasharray:none;stroke-opacity:1"
       d="m 22.44,38.04 c 0,2.784 2.23,5.04 4.98,5.04 2.75,0 4.98,-2.256 4.98,-5.04 0,-2.784 -2.23,-5.04 -4.98,-5.04 -2.75,0 -4.98,2.256 -4.98,5.04 z" /><g
       id="g14"><g
         clip-path="url(#clipPath20)"
         id="g16"><path
           id="path22"
           style="fill:none;stroke:#000000;stroke-width:1.25;stroke-linecap:butt;stroke-linejoin:miter;stroke-miterlimit:10;stroke-dasharray:none;stroke-opacity:1"
           d="M 2.5162,53.355 C -0.39445,48.511 8.3864,37.89 22.129,29.633 35.871,21.375 49.371,18.609 52.282,23.453 55.193,28.297 46.412,38.918 32.669,47.175 18.927,55.432 5.4269,58.199 2.5162,53.355 Z" /></g></g><g
       id="g24"><g
         clip-path="url(#clipPath30)"
         id="g26"><path
           id="path32"
           style="fill:none;stroke:#000000;stroke-width:1.20000005;stroke-linecap:butt;stroke-linejoin:miter;stroke-miterlimit:10;stroke-dasharray:none;stroke-opacity:1"
           d="m 26.64,67.44 c -5.633,0 -10.2,-13.002 -10.2,-29.04 0,-16.038 4.567,-29.04 10.2,-29.04 5.633,0 10.2,13.002 10.2,29.04 0,16.038 -4.567,29.04 -10.2,29.04 z" /></g></g><g
       id="g34"><g
         clip-path="url(#clipPath40)"
         id="g36"><path
           id="path42"
           style="fill:none;stroke:#000000;stroke-width:1.25;stroke-linecap:butt;stroke-linejoin:miter;stroke-miterlimit:10;stroke-dasharray:none;stroke-opacity:1"
           d="M 52.282,51.879 C 49.371,56.723 35.871,53.956 22.129,45.699 8.3862,37.442 -0.39462,26.821 2.5161,21.977 5.4268,17.132 18.927,19.899 32.669,28.156 46.412,36.414 55.192,47.035 52.282,51.879 Z" /></g></g><path
       id="path44"
       style="fill:#000000;fill-opacity:1;fill-rule:evenodd;stroke:none"
       d="m 101.64,46.25 c -2.701,-1.135 -4.598,-3.793 -4.598,-6.89 0,-4.13 3.378,-7.477 7.538,-7.477 4.16,0 7.53,3.347 7.53,7.477 0,4.13 -3.37,7.478 -7.53,7.478 -1.04,0 -2.03,-0.21 -2.94,-0.588 z m -1.37,14.35 h 8.61 v -7.148 l 2.81,-1.134 5.14,5.098 6.09,-6.043 -5.13,-5.082 c 0.5,-0.742 0.84,-1.569 1.11,-2.432 h 6.98 v -8.546 h -6.9 c -0.34,-1.269 -0.84,-2.466 -1.51,-3.559 l 4.92,-4.878 -6.09,-6.043 -5.33,5.289 c -0.63,-0.412 -1.35,-0.661 -2.09,-0.854 V 18.12 h -8.61 v 7.148 l -2.537,1.038 -5.124,-5.084 -6.09,6.042 4.952,4.914 c -0.576,0.965 -0.999,2.022 -1.292,3.135 H 83.4 v 8.546 h 6.855 l 1.221,2.685 -4.96,4.921 6.09,6.043 5.123,-5.083 c 0.78,0.473 1.643,0.792 2.541,1.027 z" /><path
       id="path46"
       style="fill:none;stroke:#000000;stroke-width:0.23999999;stroke-linecap:butt;stroke-linejoin:miter;stroke-miterlimit:10;stroke-dasharray:none;stroke-opacity:1"
       d="m 101.64,46.25 c -2.701,-1.135 -4.598,-3.793 -4.598,-6.89 0,-4.13 3.378,-7.477 7.538,-7.477 4.16,0 7.53,3.347 7.53,7.477 0,4.13 -3.37,7.478 -7.53,7.478 -1.04,0 -2.03,-0.21 -2.94,-0.588 z m -1.37,14.35 h 8.61 v -7.148 l 2.81,-1.134 5.14,5.098 6.09,-6.043 -5.13,-5.082 c 0.5,-0.742 0.84,-1.569 1.11,-2.432 h 6.98 v -8.546 h -6.9 c -0.34,-1.269 -0.84,-2.466 -1.51,-3.559 l 4.92,-4.878 -6.09,-6.043 -5.33,5.289 c -0.63,-0.412 -1.35,-0.661 -2.09,-0.854 V 18.12 h -8.61 v 7.148 l -2.537,1.038 -5.124,-5.084 -6.09,6.042 4.952,4.914 c -0.576,0.965 -0.999,2.022 -1.292,3.135 H 83.4 v 8.546 h 6.855 l 1.221,2.685 -4.96,4.921 6.09,6.043 5.123,-5.083 c 0.78,0.473 1.643,0.792 2.541,1.027 z" /><path
       id="path48"
       style="fill:#000000;fill-opacity:1;fill-rule:nonzero;stroke:none"
       d="M 56.46,40.8 H 68.069 V 38.76 H 56.46 Z m 10.59,4.08 10.2,-5.1 -10.201,-5.1 z" /></g></svg>