<?xml version="1.0" encoding="UTF-8" standalone="no"?>
<svg
   xmlns:dc="http://purl.org/dc/elements/1.1/"
   xmlns:cc="http://creativecommons.org/ns#"
   xmlns:rdf="http://www.w3.org/1999/02/22-rdf-syntax-ns#"
   xmlns:svg="http://www.w3.org/2000/svg"
   xmlns="http://www.w3.org/2000/svg"
   viewBox="0 0 128.48 105.76"
   height="105.76"
   width="128.48"
   xml:space="preserve"
   id="svg2"
   version="1.1"><metadata
     id="metadata8"><rdf:RDF><cc:Work
         rdf:about=""><dc:format>image/svg+xml</dc:format><dc:type
           rdf:resource="http://purl.org/dc/dcmitype/StillImage" /></cc:Work></rdf:RDF></metadata><defs
     id="defs6" /><g
     transform="matrix(1.3333333,0,0,-1.3333333,0,105.76)"
     id="g10"><path
       id="path12"
       style="fill:none;stroke:#000000;stroke-width:1.20000005;stroke-linecap:butt;stroke-linejoin:miter;stroke-miterlimit:10;stroke-dasharray:none;stroke-opacity:1"
       d="M 3.24,70.08 H 94.275" /><path
       id="path14"
       style="fill:none;stroke:#000000;stroke-width:1.20000005;stroke-linecap:butt;stroke-linejoin:miter;stroke-miterlimit:10;stroke-dasharray:none;stroke-opacity:1"
       d="M 3.24,42.84 H 94.275" /><path
       id="path16"
       style="fill:none;stroke:#000000;stroke-width:1.20000005;stroke-linecap:butt;stroke-linejoin:miter;stroke-miterlimit:10;stroke-dasharray:none;stroke-opacity:1"
       d="M 3.24,13.8 H 94.275" /><path
       id="path18"
       style="fill:none;stroke:#000000;stroke-width:1.20000005;stroke-linecap:butt;stroke-linejoin:miter;stroke-miterlimit:10;stroke-dasharray:none;stroke-opacity:1"
       d="M 31.56,70.08 V 2.6156" /><path
       id="path20"
       style="fill:none;stroke:#000000;stroke-width:1.20000005;stroke-linecap:butt;stroke-linejoin:miter;stroke-miterlimit:10;stroke-dasharray:none;stroke-opacity:1"
       d="m 20.16,13.86 c 0,6.263 5.104,11.34 11.4,11.34 6.296,0 11.4,-5.077 11.4,-11.34 0,-6.2629 -5.104,-11.34 -11.4,-11.34 -6.296,0 -11.4,5.0771 -11.4,11.34 z" /><path
       id="path22"
       style="fill:#000000;fill-opacity:1;fill-rule:evenodd;stroke:none"
       d="m 24.12,69.24 c 0,4.175 3.385,7.56 7.56,7.56 4.175,0 7.56,-3.385 7.56,-7.56 0,-4.175 -3.385,-7.56 -7.56,-7.56 -4.175,0 -7.56,3.385 -7.56,7.56 z" /><path
       id="path24"
       style="fill:none;stroke:#000000;stroke-width:1.20000005;stroke-linecap:butt;stroke-linejoin:miter;stroke-miterlimit:10;stroke-dasharray:none;stroke-opacity:1"
       d="m 56.64,42.9 c 0,6.263 5.077,11.34 11.34,11.34 6.263,0 11.34,-5.077 11.34,-11.34 0,-6.263 -5.077,-11.34 -11.34,-11.34 -6.263,0 -11.34,5.077 -11.34,11.34 z" /><path
       id="path26"
       style="fill:#000000;fill-opacity:1;fill-rule:evenodd;stroke:none"
       d="m 60.36,14.46 c 0,4.208 3.412,7.62 7.62,7.62 4.208,0 7.62,-3.412 7.62,-7.62 0,-4.208 -3.412,-7.62 -7.62,-7.62 -4.208,0 -7.62,3.412 -7.62,7.62 z" /><path
       id="path28"
       style="fill:none;stroke:#000000;stroke-width:1.20000005;stroke-linecap:butt;stroke-linejoin:miter;stroke-miterlimit:10;stroke-dasharray:none;stroke-opacity:1"
       d="M 67.92,53.76 V 15.068" /></g></svg>