<?xml version="1.0" encoding="UTF-8" standalone="no"?>
<svg
   xmlns:dc="http://purl.org/dc/elements/1.1/"
   xmlns:cc="http://creativecommons.org/ns#"
   xmlns:rdf="http://www.w3.org/1999/02/22-rdf-syntax-ns#"
   xmlns:svg="http://www.w3.org/2000/svg"
   xmlns="http://www.w3.org/2000/svg"
   viewBox="0 0 151.2 96"
   height="96"
   width="151.2"
   xml:space="preserve"
   id="svg2"
   version="1.1"><metadata
     id="metadata8"><rdf:RDF><cc:Work
         rdf:about=""><dc:format>image/svg+xml</dc:format><dc:type
           rdf:resource="http://purl.org/dc/dcmitype/StillImage" /></cc:Work></rdf:RDF></metadata><defs
     id="defs6" /><g
     transform="matrix(1.3333333,0,0,-1.3333333,0,96)"
     id="g10"><path
       id="path12"
       style="fill:none;stroke:#000000;stroke-width:1.20000005;stroke-linecap:butt;stroke-linejoin:miter;stroke-miterlimit:10;stroke-dasharray:none;stroke-opacity:1"
       d="M 14.16,59.52 H 71.574" /><path
       id="path14"
       style="fill:none;stroke:#000000;stroke-width:1.20000005;stroke-linecap:butt;stroke-linejoin:miter;stroke-miterlimit:10;stroke-dasharray:none;stroke-opacity:1"
       d="M 14.16,42.36 H 71.574" /><path
       id="path16"
       style="fill:none;stroke:#000000;stroke-width:1.20000005;stroke-linecap:butt;stroke-linejoin:miter;stroke-miterlimit:10;stroke-dasharray:none;stroke-opacity:1"
       d="M 14.16,24 H 71.574" /><path
       id="path18"
       style="fill:none;stroke:#000000;stroke-width:1.20000005;stroke-linecap:butt;stroke-linejoin:miter;stroke-miterlimit:10;stroke-dasharray:none;stroke-opacity:1"
       d="M 32.04,59.52 V 16.972" /><path
       id="path20"
       style="fill:none;stroke:#000000;stroke-width:1.20000005;stroke-linecap:butt;stroke-linejoin:miter;stroke-miterlimit:10;stroke-dasharray:none;stroke-opacity:1"
       d="m 24.84,24.06 c 0,3.943 3.224,7.14 7.2,7.14 3.976,0 7.2,-3.197 7.2,-7.14 0,-3.943 -3.224,-7.14 -7.2,-7.14 -3.976,0 -7.2,3.197 -7.2,7.14 z" /><path
       id="path22"
       style="fill:#000000;fill-opacity:1;fill-rule:evenodd;stroke:none"
       d="m 27.36,58.98 c 0,2.618 2.149,4.74 4.8,4.74 2.651,0 4.8,-2.122 4.8,-4.74 0,-2.618 -2.149,-4.74 -4.8,-4.74 -2.651,0 -4.8,2.122 -4.8,4.74 z" /><path
       id="path24"
       style="fill:none;stroke:#000000;stroke-width:1.20000005;stroke-linecap:butt;stroke-linejoin:miter;stroke-miterlimit:10;stroke-dasharray:none;stroke-opacity:1"
       d="m 47.88,42.36 c 0,3.976 3.224,7.2 7.2,7.2 3.976,0 7.2,-3.224 7.2,-7.2 0,-3.976 -3.224,-7.2 -7.2,-7.2 -3.976,0 -7.2,3.224 -7.2,7.2 z" /><path
       id="path26"
       style="fill:#000000;fill-opacity:1;fill-rule:evenodd;stroke:none"
       d="m 50.28,24.48 c 0,2.651 2.149,4.8 4.8,4.8 2.651,0 4.8,-2.149 4.8,-4.8 0,-2.651 -2.149,-4.8 -4.8,-4.8 -2.651,0 -4.8,2.149 -4.8,4.8 z" /><path
       id="path28"
       style="fill:none;stroke:#000000;stroke-width:1.20000005;stroke-linecap:butt;stroke-linejoin:miter;stroke-miterlimit:10;stroke-dasharray:none;stroke-opacity:1"
       d="M 54.96,49.32 V 24.918" /></g></svg>