<?xml version="1.0" encoding="UTF-8" standalone="no"?>
<svg
   xmlns:dc="http://purl.org/dc/elements/1.1/"
   xmlns:cc="http://creativecommons.org/ns#"
   xmlns:rdf="http://www.w3.org/1999/02/22-rdf-syntax-ns#"
   xmlns:svg="http://www.w3.org/2000/svg"
   xmlns="http://www.w3.org/2000/svg"
   viewBox="0 0 108.32 96"
   height="96"
   width="108.32"
   xml:space="preserve"
   id="svg2"
   version="1.1"><metadata
     id="metadata8"><rdf:RDF><cc:Work
         rdf:about=""><dc:format>image/svg+xml</dc:format><dc:type
           rdf:resource="http://purl.org/dc/dcmitype/StillImage" /></cc:Work></rdf:RDF></metadata><defs
     id="defs6"><clipPath
       id="clipPath18"
       clipPathUnits="userSpaceOnUse"><path
         style="clip-rule:evenodd"
         id="path16"
         d="M 0,2.2888e-5 H 81.24 V 72.000023 H 0 Z" /></clipPath><clipPath
       id="clipPath28"
       clipPathUnits="userSpaceOnUse"><path
         style="clip-rule:evenodd"
         id="path26"
         d="M -3.815e-6,72 H 81.24 V 2.2888e-5 L -3.815e-6,1.5259e-5" /></clipPath><clipPath
       id="clipPath38"
       clipPathUnits="userSpaceOnUse"><path
         style="clip-rule:evenodd"
         id="path36"
         d="M -3.815e-6,72 H 81.24 V 3.0518e-5 L 0,2.2888e-5" /></clipPath><clipPath
       id="clipPath50"
       clipPathUnits="userSpaceOnUse"><path
         style="clip-rule:evenodd"
         id="path48"
         d="M -3.815e-6,72 H 81.24 V 7.629e-6 L -3.815e-6,0" /></clipPath><clipPath
       id="clipPath60"
       clipPathUnits="userSpaceOnUse"><path
         style="clip-rule:evenodd"
         id="path58"
         d="M 7.629e-6,72 H 81.24 V 2.2888e-5 L 3.815e-6,1.5259e-5" /></clipPath><clipPath
       id="clipPath70"
       clipPathUnits="userSpaceOnUse"><path
         style="clip-rule:evenodd"
         id="path68"
         d="M -7.629e-6,72 H 81.24 V 2.2888e-5 H -7.629e-6" /></clipPath><clipPath
       id="clipPath82"
       clipPathUnits="userSpaceOnUse"><path
         style="clip-rule:evenodd"
         id="path80"
         d="M -7.629e-6,72 H 81.24 V 7.629e-6 L -3.815e-6,0" /></clipPath><clipPath
       id="clipPath92"
       clipPathUnits="userSpaceOnUse"><path
         style="clip-rule:evenodd"
         id="path90"
         d="M 0,72 H 81.24 V 1.5259e-5 L -3.815e-6,7.629e-6" /></clipPath><clipPath
       id="clipPath102"
       clipPathUnits="userSpaceOnUse"><path
         style="clip-rule:evenodd"
         id="path100"
         d="M -7.629e-6,72 H 81.24 V 2.2888e-5 L -2.2888e-5,1.5259e-5" /></clipPath><clipPath
       id="clipPath130"
       clipPathUnits="userSpaceOnUse"><path
         style="clip-rule:evenodd"
         id="path128"
         d="M -7.629e-6,72 H 81.24 V 1.5259e-5 H -7.629e-6" /></clipPath><clipPath
       id="clipPath140"
       clipPathUnits="userSpaceOnUse"><path
         style="clip-rule:evenodd"
         id="path138"
         d="M -3.815e-6,72 H 81.24 V 1.5259e-5 H 3.815e-6" /></clipPath><clipPath
       id="clipPath150"
       clipPathUnits="userSpaceOnUse"><path
         style="clip-rule:evenodd"
         id="path148"
         d="M 1.211e-6,0 H 81.240001 V 72 H 1.211e-6 Z" /></clipPath><clipPath
       id="clipPath162"
       clipPathUnits="userSpaceOnUse"><path
         style="clip-rule:evenodd"
         id="path160"
         d="M 1.211e-6,0 H 81.240001 V 72 H 1.211e-6 Z" /></clipPath></defs><g
     transform="matrix(1.3333333,0,0,-1.3333333,0,96)"
     id="g10"><g
       id="g12"><g
         clip-path="url(#clipPath18)"
         id="g14"><path
           id="path20"
           style="fill:#ffffff;fill-opacity:1;fill-rule:evenodd;stroke:none"
           d="M 0,7.629e-6 H 81.24 V 72.000008 H 0 Z" /></g></g><g
       id="g22"><g
         clip-path="url(#clipPath28)"
         id="g24"><path
           id="path30"
           style="fill:none;stroke:#000000;stroke-width:1.75;stroke-linecap:butt;stroke-linejoin:miter;stroke-miterlimit:10;stroke-dasharray:none;stroke-opacity:1"
           d="m 32.905,53.887 6.67,1.871" /></g></g><g
       id="g32"><g
         clip-path="url(#clipPath38)"
         id="g34"><path
           id="path40"
           style="fill:#000000;fill-opacity:1;fill-rule:evenodd;stroke:none"
           d="m 36.009,59.306 8.166,-2.471 -5.688,-6.359 z" /></g></g><path
       id="path42"
       style="fill:none;stroke:#000000;stroke-width:0.47999999;stroke-linecap:butt;stroke-linejoin:miter;stroke-miterlimit:10;stroke-dasharray:none;stroke-opacity:1"
       d="m 57.12,58.62 c 0,0.961 0.752,1.74 1.68,1.74 0.928,0 1.68,-0.779 1.68,-1.74 0,-0.961 -0.752,-1.74 -1.68,-1.74 -0.928,0 -1.68,0.779 -1.68,1.74 z" /><g
       id="g44"><g
         clip-path="url(#clipPath50)"
         id="g46"><path
           id="path52"
           style="fill:none;stroke:#000000;stroke-width:0.5;stroke-linecap:butt;stroke-linejoin:miter;stroke-miterlimit:10;stroke-dasharray:none;stroke-opacity:1"
           d="m 50.318,63.816 c -0.991,-1.65 1.999,-5.266 6.679,-8.078 4.68,-2.812 9.277,-3.754 10.268,-2.105 0.991,1.65 -1.999,5.267 -6.679,8.079 -4.679,2.811 -9.277,3.754 -10.268,2.104 z" /></g></g><g
       id="g54"><g
         clip-path="url(#clipPath60)"
         id="g56"><path
           id="path62"
           style="fill:none;stroke:#000000;stroke-width:0.47999999;stroke-linecap:butt;stroke-linejoin:miter;stroke-miterlimit:10;stroke-dasharray:none;stroke-opacity:1"
           d="m 58.56,68.64 c -1.922,0 -3.48,-4.432 -3.48,-9.9 0,-5.468 1.558,-9.9 3.48,-9.9 1.922,0 3.48,4.432 3.48,9.9 0,5.468 -1.558,9.9 -3.48,9.9 z" /></g></g><g
       id="g64"><g
         clip-path="url(#clipPath70)"
         id="g66"><path
           id="path72"
           style="fill:none;stroke:#000000;stroke-width:0.5;stroke-linecap:butt;stroke-linejoin:miter;stroke-miterlimit:10;stroke-dasharray:none;stroke-opacity:1"
           d="m 67.265,63.313 c -0.991,1.65 -5.588,0.708 -10.268,-2.104 -4.68,-2.812 -7.67,-6.429 -6.679,-8.078 0.991,-1.65 5.589,-0.708 10.268,2.104 4.68,2.812 7.67,6.429 6.679,8.078 z" /></g></g><path
       id="path74"
       style="fill:none;stroke:#000000;stroke-width:0.47999999;stroke-linecap:butt;stroke-linejoin:miter;stroke-miterlimit:10;stroke-dasharray:none;stroke-opacity:1"
       d="m 57.12,35.16 c 0,0.928 0.752,1.68 1.68,1.68 0.928,0 1.68,-0.752 1.68,-1.68 0,-0.928 -0.752,-1.68 -1.68,-1.68 -0.928,0 -1.68,0.752 -1.68,1.68 z" /><g
       id="g76"><g
         clip-path="url(#clipPath82)"
         id="g78"><path
           id="path84"
           style="fill:none;stroke:#000000;stroke-width:0.5;stroke-linecap:butt;stroke-linejoin:miter;stroke-miterlimit:10;stroke-dasharray:none;stroke-opacity:1"
           d="m 50.293,40.379 c -0.992,-1.65 1.999,-5.267 6.678,-8.079 4.68,-2.812 9.277,-3.754 10.269,-2.104 0.991,1.65 -1.999,5.266 -6.679,8.078 -4.68,2.812 -9.277,3.754 -10.268,2.105 z" /></g></g><g
       id="g86"><g
         clip-path="url(#clipPath92)"
         id="g88"><path
           id="path94"
           style="fill:none;stroke:#000000;stroke-width:0.47999999;stroke-linecap:butt;stroke-linejoin:miter;stroke-miterlimit:10;stroke-dasharray:none;stroke-opacity:1"
           d="m 58.5,45.12 c -1.955,0 -3.54,-4.406 -3.54,-9.84 0,-5.434 1.585,-9.84 3.54,-9.84 1.955,0 3.54,4.406 3.54,9.84 0,5.434 -1.585,9.84 -3.54,9.84 z" /></g></g><g
       id="g96"><g
         clip-path="url(#clipPath102)"
         id="g98"><path
           id="path104"
           style="fill:none;stroke:#000000;stroke-width:0.5;stroke-linecap:butt;stroke-linejoin:miter;stroke-miterlimit:10;stroke-dasharray:none;stroke-opacity:1"
           d="m 67.24,39.876 c -0.992,1.65 -5.589,0.707 -10.269,-2.104 -4.679,-2.812 -7.67,-6.429 -6.678,-8.079 0.991,-1.649 5.588,-0.707 10.268,2.105 4.68,2.812 7.67,6.428 6.679,8.078 z" /></g></g><path
       id="path106"
       style="fill:none;stroke:#000000;stroke-width:0.47999999;stroke-linecap:butt;stroke-linejoin:miter;stroke-miterlimit:10;stroke-dasharray:none;stroke-opacity:1"
       d="M 3.12,54.6 H 27.33" /><path
       id="path108"
       style="fill:none;stroke:#000000;stroke-width:0.47999999;stroke-linecap:butt;stroke-linejoin:miter;stroke-miterlimit:10;stroke-dasharray:none;stroke-opacity:1"
       d="M 3.12,47.28 H 27.33" /><path
       id="path110"
       style="fill:none;stroke:#000000;stroke-width:0.47999999;stroke-linecap:butt;stroke-linejoin:miter;stroke-miterlimit:10;stroke-dasharray:none;stroke-opacity:1"
       d="M 3.12,39.6 H 27.33" /><path
       id="path112"
       style="fill:none;stroke:#000000;stroke-width:0.47999999;stroke-linecap:butt;stroke-linejoin:miter;stroke-miterlimit:10;stroke-dasharray:none;stroke-opacity:1"
       d="M 10.56,54.6 V 36.848" /><path
       id="path114"
       style="fill:none;stroke:#000000;stroke-width:0.47999999;stroke-linecap:butt;stroke-linejoin:miter;stroke-miterlimit:10;stroke-dasharray:none;stroke-opacity:1"
       d="m 7.56,39.6 c 0,1.657 1.37,3 3.06,3 1.69,0 3.06,-1.343 3.06,-3 0,-1.657 -1.37,-3 -3.06,-3 -1.69,0 -3.06,1.343 -3.06,3 z" /><path
       id="path116"
       style="fill:#000000;fill-opacity:1;fill-rule:evenodd;stroke:none"
       d="m 8.76,54.36 c 0,1.127 0.8865,2.04 1.98,2.04 1.094,0 1.98,-0.913 1.98,-2.04 0,-1.127 -0.886,-2.04 -1.98,-2.04 -1.0935,0 -1.98,0.913 -1.98,2.04 z" /><path
       id="path118"
       style="fill:none;stroke:#000000;stroke-width:0.47999999;stroke-linecap:butt;stroke-linejoin:miter;stroke-miterlimit:10;stroke-dasharray:none;stroke-opacity:1"
       d="m 17.28,47.34 c 0,1.69 1.343,3.06 3,3.06 1.657,0 3,-1.37 3,-3.06 0,-1.69 -1.343,-3.06 -3,-3.06 -1.657,0 -3,1.37 -3,3.06 z" /><path
       id="path120"
       style="fill:#000000;fill-opacity:1;fill-rule:evenodd;stroke:none"
       d="m 18.24,39.78 c 0,1.094 0.913,1.98 2.04,1.98 1.127,0 2.04,-0.886 2.04,-1.98 0,-1.094 -0.913,-1.98 -2.04,-1.98 -1.127,0 -2.04,0.886 -2.04,1.98 z" /><path
       id="path122"
       style="fill:none;stroke:#000000;stroke-width:0.47999999;stroke-linecap:butt;stroke-linejoin:miter;stroke-miterlimit:10;stroke-dasharray:none;stroke-opacity:1"
       d="M 20.28,50.28 V 39.99" /><g
       id="g124"><g
         clip-path="url(#clipPath130)"
         id="g126"><path
           id="path132"
           style="fill:none;stroke:#000000;stroke-width:1.75;stroke-linecap:butt;stroke-linejoin:miter;stroke-miterlimit:10;stroke-dasharray:none;stroke-opacity:1"
           d="m 32.678,39.345 6.559,-2.227" /></g></g><g
       id="g134"><g
         clip-path="url(#clipPath140)"
         id="g136"><path
           id="path142"
           style="fill:#000000;fill-opacity:1;fill-rule:evenodd;stroke:none"
           d="m 38.3,42.061 5.339,-6.654 -8.286,-2.029 z" /></g></g><g
       id="g144"><g
         clip-path="url(#clipPath150)"
         id="g146"><text
           id="text154"
           style="font-variant:normal;font-weight:bold;font-size:20.06399918px;font-family:Calibri;-inkscape-font-specification:Calibri-Bold;writing-mode:lr-tb;fill:#000000;fill-opacity:1;fill-rule:nonzero;stroke:none"
           transform="matrix(1,0,0,-1,69.288,52.008)"><tspan
             id="tspan152"
             y="0"
             x="0">?</tspan></text>
</g></g><g
       id="g156"><g
         clip-path="url(#clipPath162)"
         id="g158"><text
           id="text166"
           style="font-variant:normal;font-weight:bold;font-size:20.06399918px;font-family:Calibri;-inkscape-font-specification:Calibri-Bold;writing-mode:lr-tb;fill:#000000;fill-opacity:1;fill-rule:nonzero;stroke:none"
           transform="matrix(1,0,0,-1,69.264,27.744)"><tspan
             id="tspan164"
             y="0"
             x="0">?</tspan></text>
</g></g></g></svg>