<?xml version="1.0" encoding="UTF-8" standalone="no"?>
<svg
   xmlns:dc="http://purl.org/dc/elements/1.1/"
   xmlns:cc="http://creativecommons.org/ns#"
   xmlns:rdf="http://www.w3.org/1999/02/22-rdf-syntax-ns#"
   xmlns:svg="http://www.w3.org/2000/svg"
   xmlns="http://www.w3.org/2000/svg"
   viewBox="0 0 151.2 96"
   height="96"
   width="151.2"
   xml:space="preserve"
   id="svg2"
   version="1.1"><metadata
     id="metadata8"><rdf:RDF><cc:Work
         rdf:about=""><dc:format>image/svg+xml</dc:format><dc:type
           rdf:resource="http://purl.org/dc/dcmitype/StillImage" /></cc:Work></rdf:RDF></metadata><defs
     id="defs6"><clipPath
       id="clipPath20"
       clipPathUnits="userSpaceOnUse"><path
         style="clip-rule:evenodd"
         id="path18"
         d="M -4.768e-6,72 H 113.4 V 3.0518e-5 L -1.907e-6,7.629e-6" /></clipPath><clipPath
       id="clipPath30"
       clipPathUnits="userSpaceOnUse"><path
         style="clip-rule:evenodd"
         id="path28"
         d="M 1.907e-6,72 H 113.4 V 1.5259e-5 L 1.907e-6,7.629e-6" /></clipPath><clipPath
       id="clipPath40"
       clipPathUnits="userSpaceOnUse"><path
         style="clip-rule:evenodd"
         id="path38"
         d="M -3.815e-6,72 H 113.4 V 2.2888e-5 L -1.5259e-5,1.5259e-5" /></clipPath></defs><g
     transform="matrix(1.3333333,0,0,-1.3333333,0,96)"
     id="g10"><path
       id="path12"
       style="fill:none;stroke:#000000;stroke-width:1.20000005;stroke-linecap:butt;stroke-linejoin:miter;stroke-miterlimit:10;stroke-dasharray:none;stroke-opacity:1"
       d="m 31.2,40.26 c 0,2.154 1.746,3.9 3.9,3.9 2.154,0 3.9,-1.746 3.9,-3.9 0,-2.154 -1.746,-3.9 -3.9,-3.9 -2.154,0 -3.9,1.746 -3.9,3.9 z" /><g
       id="g14"><g
         clip-path="url(#clipPath20)"
         id="g16"><path
           id="path22"
           style="fill:none;stroke:#000000;stroke-width:1.25;stroke-linecap:butt;stroke-linejoin:miter;stroke-miterlimit:10;stroke-dasharray:none;stroke-opacity:1"
           d="M 15.661,52.232 C 13.387,48.447 20.247,40.151 30.982,33.7 c 10.736,-6.45 21.282,-8.612 23.556,-4.828 2.273,3.785 -4.586,12.081 -15.321,18.532 -10.736,6.45 -21.282,8.612 -23.556,4.828 z" /></g></g><g
       id="g24"><g
         clip-path="url(#clipPath30)"
         id="g26"><path
           id="path32"
           style="fill:none;stroke:#000000;stroke-width:1.20000005;stroke-linecap:butt;stroke-linejoin:miter;stroke-miterlimit:10;stroke-dasharray:none;stroke-opacity:1"
           d="m 34.5,63.24 c -4.407,0 -7.98,-10.154 -7.98,-22.68 0,-12.526 3.573,-22.68 7.98,-22.68 4.407,0 7.98,10.154 7.98,22.68 0,12.526 -3.573,22.68 -7.98,22.68 z" /></g></g><g
       id="g34"><g
         clip-path="url(#clipPath40)"
         id="g36"><path
           id="path42"
           style="fill:none;stroke:#000000;stroke-width:1.25;stroke-linecap:butt;stroke-linejoin:miter;stroke-miterlimit:10;stroke-dasharray:none;stroke-opacity:1"
           d="M 54.537,51.078 C 52.264,54.863 41.718,52.701 30.982,46.251 20.247,39.8 13.387,31.503 15.661,27.719 c 2.274,-3.784 12.82,-1.623 23.555,4.828 10.736,6.45 17.595,14.747 15.321,18.531 z" /></g></g><path
       id="path44"
       style="fill:#000000;fill-opacity:1;fill-rule:evenodd;stroke:none"
       d="m 93.116,46.652 c -2.117,-0.885 -3.602,-2.957 -3.602,-5.372 0,-3.22 2.64,-5.83 5.897,-5.83 3.257,0 5.899,2.61 5.899,5.83 0,3.22 -2.642,5.83 -5.899,5.83 -0.814,0 -1.59,-0.163 -2.295,-0.458 z M 92.041,57.84 h 6.739 v -5.573 l 2.2,-0.884 4.02,3.974 4.76,-4.711 -4.01,-3.962 c 0.39,-0.579 0.66,-1.224 0.87,-1.896 h 5.46 v -6.663 h -5.4 c -0.26,-0.99 -0.66,-1.923 -1.18,-2.775 l 3.85,-3.803 -4.77,-4.712 -4.17,4.123 c -0.493,-0.32 -1.052,-0.515 -1.63,-0.665 V 24.72 h -6.739 v 5.573 l -1.986,0.809 -4.009,-3.964 -4.765,4.711 3.875,3.831 c -0.451,0.753 -0.782,1.577 -1.011,2.445 H 78.84 v 6.663 h 5.364 l 0.955,2.093 -3.88,3.837 4.765,4.711 4.008,-3.963 c 0.61,0.369 1.286,0.618 1.989,0.801 z" /><path
       id="path46"
       style="fill:none;stroke:#000000;stroke-width:0.23999999;stroke-linecap:butt;stroke-linejoin:miter;stroke-miterlimit:10;stroke-dasharray:none;stroke-opacity:1"
       d="m 93.116,46.652 c -2.117,-0.885 -3.602,-2.957 -3.602,-5.372 0,-3.22 2.64,-5.83 5.897,-5.83 3.257,0 5.899,2.61 5.899,5.83 0,3.22 -2.642,5.83 -5.899,5.83 -0.814,0 -1.59,-0.163 -2.295,-0.458 z M 92.041,57.84 h 6.739 v -5.573 l 2.2,-0.884 4.02,3.974 4.76,-4.711 -4.01,-3.962 c 0.39,-0.579 0.66,-1.224 0.87,-1.896 h 5.46 v -6.663 h -5.4 c -0.26,-0.99 -0.66,-1.923 -1.18,-2.775 l 3.85,-3.803 -4.77,-4.712 -4.17,4.123 c -0.493,-0.32 -1.052,-0.515 -1.63,-0.665 V 24.72 h -6.739 v 5.573 l -1.986,0.809 -4.009,-3.964 -4.765,4.711 3.875,3.831 c -0.451,0.753 -0.782,1.577 -1.011,2.445 H 78.84 v 6.663 h 5.364 l 0.955,2.093 -3.88,3.837 4.765,4.711 4.008,-3.963 c 0.61,0.369 1.286,0.618 1.989,0.801 z" /><path
       id="path48"
       style="fill:#000000;fill-opacity:1;fill-rule:nonzero;stroke:none"
       d="m 57.78,42.6 h 7.061 V 40.56 H 57.78 Z m 6.041,4.08 10.2,-5.1 -10.2,-5.1 z" /></g></svg>