<svg width="16px" height="16px" viewBox="0 0 16 16" version="1.1" xmlns="http://www.w3.org/2000/svg" xmlns:xlink="http://www.w3.org/1999/xlink">
  <path d="M7.93468115,1.00121333 L8.07754385,1.00121333 L8.13733115,1.00222833 C8.33522115,1.00603167 8.53110448,1.01806 8.72465448,1.03796333 C8.85082948,1.0509425 8.95501605,1.13432676 9.00120822,1.24856557 L9.02167615,1.320495 L9.21298615,2.43008833 C9.23701948,2.56944667 9.34284781,2.67963833 9.47930115,2.716785 C9.91032615,2.83412833 10.3203161,3.002525 10.7023528,3.21506833 C10.8000728,3.269435 10.9160861,3.2777398 11.0170616,3.23761132 L11.0894528,3.19839667 L12.0010861,2.55492167 C12.1253361,2.46718833 12.2927528,2.46911333 12.4108195,2.56504833 C12.7867195,2.87048167 13.1304195,3.214135 13.4358528,3.590105 C13.5157695,3.68850361 13.5304662,3.82108394 13.4823736,3.93447502 L13.4460028,3.99978 L12.8165861,4.891475 C12.7346861,5.00734833 12.7318861,5.160625 12.8027028,5.28349833 C13.0269361,5.67234833 13.2050861,6.09115833 13.3294528,6.53245 C13.3599728,6.64040867 13.4361888,6.72873747 13.5361787,6.77194819 L13.6152861,6.79549833 L14.6804528,6.97912 C14.8303695,7.004985 14.9473861,7.12474333 14.9629028,7.27614167 C14.9802861,7.44316167 14.9913695,7.61063667 14.9965028,7.77828667 L14.9991264,7.88930083 L14.9991264,7.88930083 L14.9963861,8.22922667 C14.9910195,8.39613 14.9798195,8.56156333 14.9629028,8.72531667 C14.9499723,8.85149167 14.8665556,8.95568634 14.7523519,9.00187446 L14.6804528,9.02233833 L13.6323195,9.203055 C13.4915028,9.22829 13.3821861,9.33401333 13.3454361,9.470035 C13.2235195,9.92101 13.0458361,10.34906 12.8200861,10.74631 C12.7643661,10.84431 12.7553875,10.96135 12.7955992,11.0632028 L12.8350195,11.13621 L13.4460028,12.0016433 C13.5337361,12.12601 13.5317528,12.29331 13.4358528,12.4113767 C13.1304195,12.7872767 12.7867195,13.1309767 12.4108195,13.43641 C12.3124306,13.5163267 12.1797709,13.5310234 12.0663801,13.4829308 L12.0010861,13.44656 L11.1301695,12.8318433 C11.0157195,12.75426 10.8662695,12.7520433 10.7456361,12.8206433 C10.3483861,13.0463933 9.92035948,13.2240767 9.46937281,13.3459933 C9.35996748,13.3754867 9.27014721,13.45202 9.22627233,13.5529544 L9.20239281,13.6328767 L9.02167615,14.68101 C8.99581115,14.8309267 8.87606448,14.9479433 8.72465448,14.96346 C8.24282115,15.0133933 7.75727781,15.0133933 7.27545615,14.96346 C7.14928115,14.9505294 7.04508647,14.8671128 6.9988916,14.7529091 L6.97842281,14.68101 L6.79340115,13.6083767 C6.76715115,13.4737433 6.66421615,13.36746 6.53172948,13.33001 C6.31177781,13.26806 6.09741448,13.1926933 5.88956115,13.10496 C5.67826615,13.0194433 5.47120615,12.9202767 5.26973448,12.8073433 C5.17292915,12.7531167 5.05800968,12.7442127 4.95750088,12.7829012 L4.88532948,12.8208767 L3.99896615,13.44656 C3.87466948,13.5342933 3.70735781,13.5324267 3.58927948,13.43641 L3.37141323,13.2519892 L3.37141323,13.2519892 L3.10553719,13.005035 L3.10553719,13.005035 L2.93392781,12.83126 L2.93392781,12.83126 C2.80526781,12.6963933 2.68193948,12.5562767 2.56429281,12.4114933 C2.48424003,12.3131044 2.46939096,12.1806878 2.51745682,12.0673105 L2.55382781,12.0019933 L3.16720281,11.13306 C3.24889281,11.0173267 3.25184448,10.86426 3.18127281,10.74141 C2.94854615,10.3363433 2.77155115,9.90804833 2.65026448,9.467585 C2.62032315,9.358833 2.54393168,9.2697034 2.44343632,9.22613839 L2.36389448,9.20241333 L1.31993781,9.02242 C1.17000948,8.99657833 1.05307448,8.87690167 1.03740615,8.72557333 C0.987531146,8.24376333 0.987531146,7.75775333 1.03740615,7.27593167 C1.05045337,7.14982472 1.13384087,7.0457062 1.24803836,6.99954158 L1.31993781,6.979085 L2.36389448,6.79910333 C2.50283281,6.77515167 2.61283781,6.66987167 2.65026448,6.53393167 C2.77155115,6.09346833 2.94854615,5.66512667 3.18127281,5.26007167 C3.23773015,5.161801 3.24713255,5.0441842 3.20680993,4.94181284 L3.16720281,4.86843333 L2.55381615,3.9995 C2.46603615,3.875145 2.46821781,3.708055 2.56426948,3.58998833 C2.68192781,3.44515833 2.80526781,3.305135 2.93392781,3.170245 L3.16128781,2.94252333 L3.16128781,2.94252333 C3.29872115,2.81102833 3.44149781,2.685075 3.58927948,2.565025 C3.68767809,2.48507917 3.82026652,2.47041806 3.9336603,2.51852334 L3.99896615,2.55489833 L4.88718448,3.18185333 C5.00102781,3.25895833 5.14938115,3.26153667 5.26973448,3.19412667 C5.66978448,2.97008 6.09184948,2.79985167 6.52537115,2.68344167 C6.63496315,2.65401367 6.72495515,2.577471 6.76890917,2.47646455 L6.79282948,2.39647667 L6.97842281,1.32048333 C7.00428781,1.17049667 7.12403448,1.05352667 7.27545615,1.03795167 L7.6047274,1.01182125 L7.6047274,1.01182125 L7.93468115,1.00121333 Z M7.99998958,4.25 C5.92892708,4.25 4.25,5.92891806 4.25,7.99997917 C4.25,10.0710299 5.92892708,11.75 7.99998958,11.75 C10.0710521,11.75 11.75,10.0710299 11.75,7.99997917 C11.75,5.92891806 10.0710521,4.25 7.99998958,4.25 Z M6.9999999,6.62902677 C6.9999999,6.25261959 7.40766326,6.03479511 7.7152397,6.21337587 L7.78421107,6.26173184 L9.42797782,7.6315016 C9.63185702,7.8014092 9.65451026,8.09864655 9.49593195,8.29684965 L9.42796985,8.36609146 L7.78421107,9.73586123 C7.49503707,9.97686423 7.06671841,9.80313361 7.00700541,9.45251103 L6.9999999,9.36856629 L6.9999999,6.62902677 Z"></path>
</svg>
