<svg viewBox="0 0 24 24">
    <path d="M12.110775,2.0005325 L12.1962,2.00189 C12.4789,2.00733 12.7587,2.0245 13.0352,2.05293 C13.2515,2.07518 13.4226,2.24228 13.4596,2.45656 L13.4596,2.45656 L13.7329,4.04173 C13.7672,4.24082 13.9184,4.39824 14.1133,4.45131 C14.7291,4.61895 15.3148,4.85952 15.8606,5.16316 C16.0351,5.26025 16.2504,5.25452 16.4136,5.13935 L16.4136,5.13935 L17.7159,4.22007 C17.8934,4.09473 18.1325,4.09749 18.3012,4.23454 C18.8383,4.67089 19.3292,5.16184 19.7655,5.69894 C19.9026,5.86763 19.9053,6.10664 19.78,6.28421 L19.78,6.28421 L18.8808,7.55809 C18.7639,7.72363 18.7599,7.9426 18.8611,8.11814 C19.1814,8.67364 19.4358,9.27196 19.6136,9.9024 C19.668,10.0952 19.8246,10.2442 20.0219,10.2782 L20.0219,10.2782 L21.5435,10.5405 C21.7578,10.5775 21.9249,10.7485 21.9471,10.9648 C21.9718,11.2035 21.9877,11.4427 21.9951,11.6822 C21.9984,11.7877 22,11.8937 22,12 C22,12.0853 21.999,12.1704 21.9968,12.2553 L21.9968,12.2553 L21.9948,12.3264 C21.9872,12.5649 21.9712,12.8012 21.9471,13.0352 C21.9249,13.2515 21.7578,13.4225 21.5435,13.4595 L21.5435,13.4595 L20.0461,13.7176 C19.845,13.7537 19.6888,13.9047 19.6363,14.099 C19.4622,14.7433 19.2083,15.3548 18.8859,15.9223 C18.7864,16.0974 18.7911,16.3149 18.9073,16.4794 L18.9073,16.4794 L19.78,17.7158 C19.9053,17.8934 19.9026,18.1324 19.7655,18.3011 C19.3292,18.8382 18.8382,19.3291 18.3012,19.7655 C18.1325,19.9025 17.8934,19.9053 17.7159,19.7799 L17.7159,19.7799 L16.4717,18.9018 C16.3081,18.7909 16.0947,18.7878 15.9224,18.8858 C15.3549,19.2082 14.7434,19.4621 14.0991,19.6362 C13.9038,19.689 13.7521,19.8466 13.7177,20.046 L13.7177,20.046 L13.4596,21.5434 C13.4226,21.7577 13.2515,21.9248 13.0352,21.9471 C12.3469,22.0183 11.6533,22.0183 10.9649,21.9471 C10.7486,21.9248 10.5776,21.7577 10.5406,21.5435 L10.5406,21.5435 L10.2763,20.0111 C10.2388,19.8188 10.0918,19.6669 9.90248,19.6135 C9.58827,19.5249 9.28203,19.4173 8.9851,19.2919 C8.68325,19.1697 8.38745,19.028 8.09964,18.8668 C7.92676,18.77 7.71346,18.7742 7.55047,18.8862 L7.55047,18.8862 L6.28424,19.78 C6.10667,19.9053 5.86766,19.9025 5.69897,19.7655 C5.48787,19.594 5.2839,19.4141 5.08757,19.2262 C5.03424,19.1752 4.98135,19.1235 4.92893,19.0711 L4.92893,19.0711 L4.76275,18.9009 C4.57895,18.7082 4.40278,18.5081 4.2347,18.3013 C4.09748,18.1326 4.09436,17.8939 4.21976,17.7162 L4.21976,17.7162 L5.096,16.4749 C5.21271,16.3095 5.21692,16.0909 5.1161,15.9154 C4.78364,15.3367 4.53078,14.7248 4.35753,14.0955 C4.30406,13.9013 4.14691,13.7509 3.94841,13.7167 L3.94841,13.7167 L2.45705,13.4596 C2.24287,13.4227 2.07581,13.2517 2.05343,13.0355 C1.98219,12.3472 1.98219,11.6529 2.05343,10.9645 C2.0758,10.7484 2.24286,10.5774 2.45705,10.5405 L2.45705,10.5405 L3.94841,10.2833 C4.14691,10.2491 4.30406,10.0987 4.35753,9.90452 C4.53078,9.27526 4.78364,8.66334 5.1161,8.08467 C5.21692,7.90918 5.21271,7.69052 5.096,7.52517 L5.096,7.52517 L4.21973,6.2838 C4.09434,6.10616 4.09745,5.86745 4.23467,5.69877 C4.40276,5.49188 4.57895,5.29183 4.76276,5.09912 L4.76276,5.09912 L4.92893,4.92893 C4.98135,4.87652 5.03423,4.82481 5.08755,4.77381 C5.28389,4.58595 5.48786,4.406 5.69897,4.2345 C5.86766,4.09745 6.10667,4.0947 6.28424,4.22004 L6.28424,4.22004 L7.55312,5.11572 C7.71576,5.22587 7.92769,5.22954 8.09964,5.13324 C8.67113,4.81316 9.27409,4.56998 9.89339,4.40368 C10.0891,4.35113 10.241,4.19341 10.2755,3.99372 L10.2755,3.99372 L10.5406,2.45655 C10.5776,2.24227 10.7486,2.07517 10.9649,2.05292 C11.2781,2.0205 11.5922,2.00328 11.9067,2.00043 L11.9067,2.00043 L12.110775,2.0005325 L12.110775,2.0005325 Z M12,6 C8.68629,6 6,8.68629 6,12 C6,15.3137 8.68629,18 12,18 C15.3137,18 18,15.3137 18,12 C18,8.68629 15.3137,6 12,6 Z M10,9.13504 C10,8.2872 10.9889,7.82405 11.6402,8.36682 L11.6402,8.36682 L15.0781,11.2318 C15.5579,11.6316 15.5579,12.3684 15.0781,12.7682 L15.0781,12.7682 L11.6402,15.6332 C10.9889,16.176 10,15.7128 10,14.865 L10,14.865 Z" fill="currentColor"></path>
</svg>