<svg viewBox="0 0 24 24">
    <path d="M4.99929,2.99597 C3.895,2.99597 2.99968,3.89098 2.9993,4.99527 L2.99435987,19.0076 C2.99397,20.1124 3.88951,21.0083 4.99435987,21.0083 L18.9944,21.0083 C20.0987,21.0083 20.994,20.1133 20.9944,19.009 L20.9993001,4.99667 C20.9997,3.89183 20.1041,2.99597 18.9993,2.99597 L4.99929,2.99597 Z M11,11 L18.9937,11.0081 L18.9937,14.0041 L11,13.996 L11,11 Z M11,5.0041 L18.9937,5.01488526 L18.9937,9.0041 L11,8.99331474 L11,5.0041 Z M5,5.0041 L9,5.01488526 L9,9.0041 L5,8.99331474 L5,5.0041 Z M8.97665,13.996 L4.99365,14 L4.99365,11.0041 L8.97665,11 L8.97665,13.996 Z M4.99365,16 L8.97665,15.996 L8.97665,19 L4.99365,19.0042 L4.99365,16 Z M11,19.0042 L11,15.9919 L18.9937,16 L18.9937,19.0083 L11,19.0042 Z" fill="currentColor" ></path>
</svg>