<svg viewBox="0 0 24 24" >
    <path d="M10,16 C10.5522847,16 11,16.4477153 11,17 L11,18 C11,18.5522847 10.5522847,19 10,19 L5,19 C4.44771525,19 4,18.5522847 4,18 L4,17 C4,16.4477153 4.44771525,16 5,16 L10,16 Z M19,10 C19.5522847,10 20,10.4477153 20,11 L20,12 C20,12.5522847 19.5522847,13 19,13 L5,13 C4.44771525,13 4,12.5522847 4,12 L4,11 C4,10.4477153 4.44771525,10 5,10 L19,10 Z M19,4 C19.5522847,4 20,4.44771525 20,5 L20,6 C20,6.55228475 19.5522847,7 19,7 L5,7 C4.44771525,7 4,6.55228475 4,6 L4,5 C4,4.44771525 4.44771525,4 5,4 L19,4 Z" fill="currentColor"></path>
</svg>