<svg width="21" height="20" viewBox="0 0 21 20" fill="none" xmlns="http://www.w3.org/2000/svg">
<path d="M20.281 6.09435L14.656 0.469355C14.5863 0.399622 14.5036 0.344303 14.4126 0.30656C14.3215 0.268816 14.2239 0.24939 14.1254 0.24939C14.0268 0.24939 13.9292 0.268816 13.8382 0.30656C13.7471 0.344303 13.6644 0.399622 13.5947 0.469355L1.47944 12.5847C0.692242 13.3719 0.25 14.4395 0.25 15.5528C0.25 16.6661 0.692242 17.7337 1.47944 18.5209C2.26663 19.3081 3.3343 19.7504 4.44756 19.7504C5.56083 19.7504 6.62849 19.3081 7.41569 18.5209L17.9054 8.03123L19.9876 7.33748C20.1089 7.29711 20.218 7.22638 20.3043 7.13199C20.3906 7.03761 20.4514 6.92272 20.4808 6.79824C20.5102 6.67376 20.5073 6.54382 20.4723 6.42079C20.4373 6.29775 20.3715 6.1857 20.281 6.09529V6.09435ZM17.2632 6.66342C17.1527 6.70013 17.0522 6.76208 16.9697 6.84435L13.2601 10.554C12.466 10.8259 11.221 10.929 9.59725 10.0853C8.6035 9.56592 7.70537 9.33529 6.91975 9.26686L14.1254 2.06029L18.3619 6.29686L17.2632 6.66342Z" fill="#525252"/>
</svg>
