<?xml version="1.0" encoding="UTF-8" standalone="no"?>
<!-- Created with Inkscape (http://www.inkscape.org/) -->

<svg
   xmlns:dc="http://purl.org/dc/elements/1.1/"
   xmlns:cc="http://creativecommons.org/ns#"
   xmlns:rdf="http://www.w3.org/1999/02/22-rdf-syntax-ns#"
   xmlns:svg="http://www.w3.org/2000/svg"
   xmlns="http://www.w3.org/2000/svg"
   xmlns:sodipodi="http://sodipodi.sourceforge.net/DTD/sodipodi-0.dtd"
   xmlns:inkscape="http://www.inkscape.org/namespaces/inkscape"
   width="128"
   height="128"
   id="svg3184"
   version="1.1"
   inkscape:version="0.48.5 r10040"
   sodipodi:docname="logo.svg"
   inkscape:export-filename="/home/nikku/camunda/projects/bpmn.io/bpmn-io-chrome/app/assets/icons/icon_128.png"
   inkscape:export-xdpi="90"
   inkscape:export-ydpi="90">
  <defs
     id="defs3186" />
  <sodipodi:namedview
     id="base"
     pagecolor="#ffffff"
     bordercolor="#666666"
     borderopacity="1.0"
     inkscape:pageopacity="0.0"
     inkscape:pageshadow="2"
     inkscape:zoom="8.2734375"
     inkscape:cx="52.33176"
     inkscape:cy="24.422588"
     inkscape:current-layer="layer1"
     showgrid="true"
     inkscape:grid-bbox="true"
     inkscape:document-units="px"
     inkscape:window-width="796"
     inkscape:window-height="861"
     inkscape:window-x="0"
     inkscape:window-y="37"
     inkscape:window-maximized="0" />
  <metadata
     id="metadata3189">
    <rdf:RDF>
      <cc:Work
         rdf:about="">
        <dc:format>image/svg+xml</dc:format>
        <dc:type
           rdf:resource="http://purl.org/dc/dcmitype/StillImage" />
        <dc:title></dc:title>
      </cc:Work>
    </rdf:RDF>
  </metadata>
  <g
     id="layer1"
     inkscape:label="Layer 1"
     inkscape:groupmode="layer"
     transform="translate(0,80)">
    <rect
       style="fill:#ffffff;fill-opacity:1;stroke:none"
       id="rect3765"
       width="96"
       height="96"
       x="16"
       y="-64"
       ry="6.043437" />
    <path
       style="fill:#52b415;fill-opacity:1;stroke-width:1;stroke-linecap:round;stroke-linejoin:miter;stroke-miterlimit:4;stroke-dashoffset:0"
       d="M 109.792,3.1039978 C 105.472,-7.3599983 93.376002,-12.351999 82.912,-8.0319933 72.448003,-3.7119959 67.456002,8.384002 71.776003,18.847999 76.192,29.311995 88.192003,34.303996 98.751995,29.983999 109.21601,25.664001 114.208,13.663998 109.792,3.1039978 z m -2.592,-15.7439918 0.096,0 2.208,-8.448005 -9.408,-3.935999 -4.512002,7.584003 0.384,0.096 c -3.359995,-0.575999 -6.815996,-0.671995 -10.175995,0 l -4.512,-7.583993 -9.408001,3.839994 2.208,8.544 0.191998,-0.096 c -2.783998,2.015992 -5.183998,4.4160007 -7.103998,7.1039967 l 0,0 -8.448,-2.208001 -3.936001,9.4080025 7.584,4.5119968 0.096,-0.383999 c -0.576,3.359999 -0.672,6.815994 0,10.176001 L 54.88,20.480001 l 3.936,9.311998 8.448,-2.111997 -0.096,-0.288003 C 68.32,29.120005 69.664,30.656002 71.2,32 H 22.24 C 18.784,32 16,29.216 16,25.759997 v -40.991991 l 5.76,-4.224004 -0.192001,-0.191999 C 24.448,-17.727991 27.52,-16.383992 30.784,-15.711998 l -0.096,0 1.152,8.5439987 9.984001,0.192 1.343999,-8.4479947 -0.287999,-0.096 c 3.167999,-0.575999 6.336,-1.824002 9.311999,-3.551999 l 6.816001,5.184001 7.104,-6.911999 -5.087999,-7.008002 -0.192,0.192 c 1.919999,-2.784 3.168,-5.855995 3.936,-9.119999 v 0.096 l 8.543999,-1.151999 0.192,-9.888006 -8.544,-1.439993 0,0.38399 c -0.672,-3.263994 -1.824,-6.431994 -3.648,-9.311998 L 65.920003,-64 h 39.839987 c 3.45602,0 6.24001,2.784003 6.24001,6.240006 v 49.2479967 c -1.44,-1.5359977 -3.072,-2.9759997 -4.8,-4.1279977 z M 51.712002,-57.27999 c -7.872,-7.968012 -20.64,-8.160003 -28.703999,-0.384009 -7.968,7.776001 -8.16,20.544003 -0.288,28.512004 7.775999,8.063996 20.639999,8.255995 28.607999,0.480003 8.064001,-7.776009 8.160001,-20.544002 0.384,-28.607998 z"
       id="rect3211"
       inkscape:connector-curvature="0"
       inkscape:export-filename="/home/nikku/camunda/projects/bpmn.io/bpmn-io-chrome/app/assets/icons/rect3211.png"
       inkscape:export-xdpi="78.620003"
       inkscape:export-ydpi="78.620003" />
  </g>
</svg>
